<svg xmlns="http://www.w3.org/2000/svg" xmlns:xlink="http://www.w3.org/1999/xlink" width="1080" zoomAndPan="magnify" viewBox="0 0 810 809.999993" height="1080" preserveAspectRatio="xMidYMid meet" version="1.0"><defs><g/><clipPath id="23e4eb0bb9"><path d="M 23.960938 47.777344 L 71.605469 47.777344 L 71.605469 95.417969 L 23.960938 95.417969 Z M 23.960938 47.777344 " clip-rule="nonzero"/></clipPath><clipPath id="99e34792f7"><path d="M 47.785156 47.777344 C 34.628906 47.777344 23.960938 58.441406 23.960938 71.597656 C 23.960938 84.753906 34.628906 95.417969 47.785156 95.417969 C 60.9375 95.417969 71.605469 84.753906 71.605469 71.597656 C 71.605469 58.441406 60.9375 47.777344 47.785156 47.777344 Z M 47.785156 47.777344 " clip-rule="nonzero"/></clipPath><clipPath id="6e4736b905"><path d="M 0.960938 0.777344 L 48.605469 0.777344 L 48.605469 48.417969 L 0.960938 48.417969 Z M 0.960938 0.777344 " clip-rule="nonzero"/></clipPath><clipPath id="e10c062b64"><path d="M 24.785156 0.777344 C 11.628906 0.777344 0.960938 11.441406 0.960938 24.597656 C 0.960938 37.753906 11.628906 48.417969 24.785156 48.417969 C 37.9375 48.417969 48.605469 37.753906 48.605469 24.597656 C 48.605469 11.441406 37.9375 0.777344 24.785156 0.777344 Z M 24.785156 0.777344 " clip-rule="nonzero"/></clipPath><clipPath id="3d9ac862be"><rect x="0" width="49" y="0" height="49"/></clipPath><clipPath id="534fe9df2b"><path d="M 36.59375 60.40625 L 58.574219 60.40625 L 58.574219 82.390625 L 36.59375 82.390625 Z M 36.59375 60.40625 " clip-rule="nonzero"/></clipPath><clipPath id="2e4da416e1"><path d="M 47.582031 60.40625 C 41.511719 60.40625 36.59375 65.328125 36.59375 71.398438 C 36.59375 77.46875 41.511719 82.390625 47.582031 82.390625 C 53.652344 82.390625 58.574219 77.46875 58.574219 71.398438 C 58.574219 65.328125 53.652344 60.40625 47.582031 60.40625 Z M 47.582031 60.40625 " clip-rule="nonzero"/></clipPath><clipPath id="00fed805ff"><path d="M 0.59375 0.40625 L 22.574219 0.40625 L 22.574219 22.390625 L 0.59375 22.390625 Z M 0.59375 0.40625 " clip-rule="nonzero"/></clipPath><clipPath id="10b7a16da0"><path d="M 11.582031 0.40625 C 5.511719 0.40625 0.59375 5.328125 0.59375 11.398438 C 0.59375 17.46875 5.511719 22.390625 11.582031 22.390625 C 17.652344 22.390625 22.574219 17.46875 22.574219 11.398438 C 22.574219 5.328125 17.652344 0.40625 11.582031 0.40625 Z M 11.582031 0.40625 " clip-rule="nonzero"/></clipPath><clipPath id="076e29797f"><rect x="0" width="23" y="0" height="23"/></clipPath><clipPath id="5cb3d2045e"><path d="M 62 0.921875 L 337 0.921875 L 337 296 L 62 296 Z M 62 0.921875 " clip-rule="nonzero"/></clipPath><clipPath id="348fc35556"><path d="M 0.140625 119.273438 L 47.785156 119.273438 L 47.785156 166.917969 L 0.140625 166.917969 Z M 0.140625 119.273438 " clip-rule="nonzero"/></clipPath><clipPath id="839d1fb20c"><path d="M 23.960938 119.273438 C 10.808594 119.273438 0.140625 129.941406 0.140625 143.09375 C 0.140625 156.25 10.808594 166.917969 23.960938 166.917969 C 37.117188 166.917969 47.785156 156.25 47.785156 143.09375 C 47.785156 129.941406 37.117188 119.273438 23.960938 119.273438 Z M 23.960938 119.273438 " clip-rule="nonzero"/></clipPath><clipPath id="a9b0a4073e"><path d="M 0.140625 0.273438 L 47.785156 0.273438 L 47.785156 47.917969 L 0.140625 47.917969 Z M 0.140625 0.273438 " clip-rule="nonzero"/></clipPath><clipPath id="be11d94497"><path d="M 23.960938 0.273438 C 10.808594 0.273438 0.140625 10.941406 0.140625 24.09375 C 0.140625 37.25 10.808594 47.917969 23.960938 47.917969 C 37.117188 47.917969 47.785156 37.25 47.785156 24.09375 C 47.785156 10.941406 37.117188 0.273438 23.960938 0.273438 Z M 23.960938 0.273438 " clip-rule="nonzero"/></clipPath><clipPath id="74eb241a03"><rect x="0" width="48" y="0" height="48"/></clipPath><clipPath id="792ce13832"><path d="M 58.574219 272.949219 L 106.214844 272.949219 L 106.214844 320.589844 L 58.574219 320.589844 Z M 58.574219 272.949219 " clip-rule="nonzero"/></clipPath><clipPath id="baba60361c"><path d="M 82.394531 272.949219 C 69.238281 272.949219 58.574219 283.613281 58.574219 296.769531 C 58.574219 309.925781 69.238281 320.589844 82.394531 320.589844 C 95.550781 320.589844 106.214844 309.925781 106.214844 296.769531 C 106.214844 283.613281 95.550781 272.949219 82.394531 272.949219 Z M 82.394531 272.949219 " clip-rule="nonzero"/></clipPath><clipPath id="b591e2d433"><path d="M 0.574219 0.949219 L 48.214844 0.949219 L 48.214844 48.589844 L 0.574219 48.589844 Z M 0.574219 0.949219 " clip-rule="nonzero"/></clipPath><clipPath id="7ddc3d368f"><path d="M 24.394531 0.949219 C 11.238281 0.949219 0.574219 11.613281 0.574219 24.769531 C 0.574219 37.925781 11.238281 48.589844 24.394531 48.589844 C 37.550781 48.589844 48.214844 37.925781 48.214844 24.769531 C 48.214844 11.613281 37.550781 0.949219 24.394531 0.949219 Z M 24.394531 0.949219 " clip-rule="nonzero"/></clipPath><clipPath id="7940f895f6"><rect x="0" width="49" y="0" height="49"/></clipPath><clipPath id="8e3d2eed04"><path d="M 71.203125 285.578125 L 93.183594 285.578125 L 93.183594 307.558594 L 71.203125 307.558594 Z M 71.203125 285.578125 " clip-rule="nonzero"/></clipPath><clipPath id="cc047a5a21"><path d="M 82.195312 285.578125 C 76.125 285.578125 71.203125 290.5 71.203125 296.570312 C 71.203125 302.640625 76.125 307.558594 82.195312 307.558594 C 88.265625 307.558594 93.183594 302.640625 93.183594 296.570312 C 93.183594 290.5 88.265625 285.578125 82.195312 285.578125 Z M 82.195312 285.578125 " clip-rule="nonzero"/></clipPath><clipPath id="93da17e4d1"><path d="M 0.203125 0.578125 L 22.183594 0.578125 L 22.183594 22.558594 L 0.203125 22.558594 Z M 0.203125 0.578125 " clip-rule="nonzero"/></clipPath><clipPath id="5d05a3c45a"><path d="M 11.195312 0.578125 C 5.125 0.578125 0.203125 5.5 0.203125 11.570312 C 0.203125 17.640625 5.125 22.558594 11.195312 22.558594 C 17.265625 22.558594 22.183594 17.640625 22.183594 11.570312 C 22.183594 5.5 17.265625 0.578125 11.195312 0.578125 Z M 11.195312 0.578125 " clip-rule="nonzero"/></clipPath><clipPath id="b6a88652fb"><rect x="0" width="23" y="0" height="23"/></clipPath><clipPath id="0b0766bdfc"><path d="M 570 209 L 619 209 L 619 258 L 570 258 Z M 570 209 " clip-rule="nonzero"/></clipPath><clipPath id="1a9d9579be"><path d="M 617.597656 257.679688 L 569.964844 256.84375 L 570.800781 209.210938 L 618.433594 210.046875 Z M 617.597656 257.679688 " clip-rule="nonzero"/></clipPath><clipPath id="374bac787a"><path d="M 593.78125 257.261719 C 606.933594 257.492188 617.785156 247.015625 618.015625 233.863281 C 618.246094 220.707031 607.769531 209.859375 594.617188 209.628906 C 581.460938 209.398438 570.613281 219.871094 570.382812 233.027344 C 570.148438 246.179688 580.625 257.03125 593.78125 257.261719 Z M 593.78125 257.261719 " clip-rule="nonzero"/></clipPath><clipPath id="165ee2ac08"><path d="M 0.121094 0.238281 L 48.359375 0.238281 L 48.359375 48.71875 L 0.121094 48.71875 Z M 0.121094 0.238281 " clip-rule="nonzero"/></clipPath><clipPath id="20f862b4b0"><path d="M 47.597656 48.679688 L -0.0351562 47.84375 L 0.800781 0.210938 L 48.433594 1.046875 Z M 47.597656 48.679688 " clip-rule="nonzero"/></clipPath><clipPath id="1f922fbb09"><path d="M 23.78125 48.261719 C 36.933594 48.492188 47.785156 38.015625 48.015625 24.863281 C 48.246094 11.707031 37.769531 0.859375 24.617188 0.628906 C 11.460938 0.398438 0.613281 10.871094 0.382812 24.027344 C 0.148438 37.179688 10.625 48.03125 23.78125 48.261719 Z M 23.78125 48.261719 " clip-rule="nonzero"/></clipPath><clipPath id="e9c3ef7ffe"><rect x="0" width="49" y="0" height="49"/></clipPath><clipPath id="c78d4162bc"><path d="M 583 222 L 606 222 L 606 245 L 583 245 Z M 583 222 " clip-rule="nonzero"/></clipPath><clipPath id="bc2b5b7748"><path d="M 605.167969 244.804688 L 583.1875 244.417969 L 583.574219 222.441406 L 605.550781 222.828125 Z M 605.167969 244.804688 " clip-rule="nonzero"/></clipPath><clipPath id="4fdde23a62"><path d="M 594.175781 244.613281 C 600.246094 244.71875 605.253906 239.886719 605.359375 233.816406 C 605.464844 227.746094 600.632812 222.742188 594.5625 222.632812 C 588.492188 222.527344 583.488281 227.363281 583.382812 233.429688 C 583.273438 239.5 588.109375 244.507812 594.175781 244.613281 Z M 594.175781 244.613281 " clip-rule="nonzero"/></clipPath><clipPath id="9fa55eb4f3"><path d="M 0.078125 0.441406 L 22.640625 0.441406 L 22.640625 22.761719 L 0.078125 22.761719 Z M 0.078125 0.441406 " clip-rule="nonzero"/></clipPath><clipPath id="3eff46177f"><path d="M 22.167969 22.804688 L 0.1875 22.417969 L 0.574219 0.441406 L 22.550781 0.828125 Z M 22.167969 22.804688 " clip-rule="nonzero"/></clipPath><clipPath id="02259f1734"><path d="M 11.175781 22.613281 C 17.246094 22.71875 22.253906 17.886719 22.359375 11.816406 C 22.464844 5.746094 17.632812 0.742188 11.5625 0.632812 C 5.492188 0.527344 0.488281 5.363281 0.382812 11.429688 C 0.273438 17.5 5.109375 22.507812 11.175781 22.613281 Z M 11.175781 22.613281 " clip-rule="nonzero"/></clipPath><clipPath id="b7e0cc184b"><rect x="0" width="23" y="0" height="23"/></clipPath><clipPath id="2fb85bcb0f"><path d="M 273 0.921875 L 511 0.921875 L 511 274 L 273 274 Z M 273 0.921875 " clip-rule="nonzero"/></clipPath><clipPath id="3704dd50c9"><path d="M 599.679688 70.570312 L 647.324219 70.570312 L 647.324219 118.210938 L 599.679688 118.210938 Z M 599.679688 70.570312 " clip-rule="nonzero"/></clipPath><clipPath id="92462e5a79"><path d="M 623.503906 70.570312 C 610.347656 70.570312 599.679688 81.234375 599.679688 94.390625 C 599.679688 107.546875 610.347656 118.210938 623.503906 118.210938 C 636.65625 118.210938 647.324219 107.546875 647.324219 94.390625 C 647.324219 81.234375 636.65625 70.570312 623.503906 70.570312 Z M 623.503906 70.570312 " clip-rule="nonzero"/></clipPath><clipPath id="cbb347cc65"><path d="M 0.679688 0.570312 L 48.324219 0.570312 L 48.324219 48.210938 L 0.679688 48.210938 Z M 0.679688 0.570312 " clip-rule="nonzero"/></clipPath><clipPath id="516bd5ac51"><path d="M 24.503906 0.570312 C 11.347656 0.570312 0.679688 11.234375 0.679688 24.390625 C 0.679688 37.546875 11.347656 48.210938 24.503906 48.210938 C 37.65625 48.210938 48.324219 37.546875 48.324219 24.390625 C 48.324219 11.234375 37.65625 0.570312 24.503906 0.570312 Z M 24.503906 0.570312 " clip-rule="nonzero"/></clipPath><clipPath id="46ead7d401"><rect x="0" width="49" y="0" height="49"/></clipPath><clipPath id="697e3c0964"><path d="M 507.9375 71.398438 L 555.578125 71.398438 L 555.578125 119.039062 L 507.9375 119.039062 Z M 507.9375 71.398438 " clip-rule="nonzero"/></clipPath><clipPath id="b4daee77d6"><path d="M 531.757812 71.398438 C 518.601562 71.398438 507.9375 82.0625 507.9375 95.21875 C 507.9375 108.375 518.601562 119.039062 531.757812 119.039062 C 544.914062 119.039062 555.578125 108.375 555.578125 95.21875 C 555.578125 82.0625 544.914062 71.398438 531.757812 71.398438 Z M 531.757812 71.398438 " clip-rule="nonzero"/></clipPath><clipPath id="5fd36881d1"><path d="M 0.9375 0.398438 L 48.578125 0.398438 L 48.578125 48.039062 L 0.9375 48.039062 Z M 0.9375 0.398438 " clip-rule="nonzero"/></clipPath><clipPath id="d55674789f"><path d="M 24.757812 0.398438 C 11.601562 0.398438 0.9375 11.0625 0.9375 24.21875 C 0.9375 37.375 11.601562 48.039062 24.757812 48.039062 C 37.914062 48.039062 48.578125 37.375 48.578125 24.21875 C 48.578125 11.0625 37.914062 0.398438 24.757812 0.398438 Z M 24.757812 0.398438 " clip-rule="nonzero"/></clipPath><clipPath id="0eff14465d"><rect x="0" width="49" y="0" height="49"/></clipPath><clipPath id="0a7294aa7d"><path d="M 642.597656 127.292969 L 690.238281 127.292969 L 690.238281 174.933594 L 642.597656 174.933594 Z M 642.597656 127.292969 " clip-rule="nonzero"/></clipPath><clipPath id="f93728d216"><path d="M 666.417969 127.292969 C 653.261719 127.292969 642.597656 137.957031 642.597656 151.113281 C 642.597656 164.269531 653.261719 174.933594 666.417969 174.933594 C 679.574219 174.933594 690.238281 164.269531 690.238281 151.113281 C 690.238281 137.957031 679.574219 127.292969 666.417969 127.292969 Z M 666.417969 127.292969 " clip-rule="nonzero"/></clipPath><clipPath id="26626822bb"><path d="M 0.597656 0.292969 L 48.238281 0.292969 L 48.238281 47.933594 L 0.597656 47.933594 Z M 0.597656 0.292969 " clip-rule="nonzero"/></clipPath><clipPath id="fdbc0cdfc7"><path d="M 24.417969 0.292969 C 11.261719 0.292969 0.597656 10.957031 0.597656 24.113281 C 0.597656 37.269531 11.261719 47.933594 24.417969 47.933594 C 37.574219 47.933594 48.238281 37.269531 48.238281 24.113281 C 48.238281 10.957031 37.574219 0.292969 24.417969 0.292969 Z M 24.417969 0.292969 " clip-rule="nonzero"/></clipPath><clipPath id="afa413df50"><rect x="0" width="49" y="0" height="48"/></clipPath><clipPath id="064951b7b6"><path d="M 144 0.921875 L 456 0.921875 L 456 427 L 144 427 Z M 144 0.921875 " clip-rule="nonzero"/></clipPath><clipPath id="344980d269"><path d="M 618 304 L 667 304 L 667 353 L 618 353 Z M 618 304 " clip-rule="nonzero"/></clipPath><clipPath id="7df398caec"><path d="M 666.066406 352.8125 L 618.433594 351.976562 L 619.269531 304.34375 L 666.902344 305.179688 Z M 666.066406 352.8125 " clip-rule="nonzero"/></clipPath><clipPath id="9ee4a55197"><path d="M 642.25 352.394531 C 655.402344 352.625 666.253906 342.148438 666.484375 328.996094 C 666.714844 315.839844 656.238281 304.992188 643.085938 304.761719 C 629.933594 304.53125 619.082031 315.007812 618.851562 328.160156 C 618.621094 341.3125 629.097656 352.164062 642.25 352.394531 Z M 642.25 352.394531 " clip-rule="nonzero"/></clipPath><clipPath id="5dddbc7e93"><path d="M 0.601562 0.519531 L 48.839844 0.519531 L 48.839844 48.761719 L 0.601562 48.761719 Z M 0.601562 0.519531 " clip-rule="nonzero"/></clipPath><clipPath id="f036f0e064"><path d="M 48.066406 48.8125 L 0.433594 47.976562 L 1.269531 0.34375 L 48.902344 1.179688 Z M 48.066406 48.8125 " clip-rule="nonzero"/></clipPath><clipPath id="a26689ba6f"><path d="M 24.25 48.394531 C 37.402344 48.625 48.253906 38.148438 48.484375 24.996094 C 48.714844 11.839844 38.238281 0.992188 25.085938 0.761719 C 11.933594 0.53125 1.082031 11.007812 0.851562 24.160156 C 0.621094 37.3125 11.097656 48.164062 24.25 48.394531 Z M 24.25 48.394531 " clip-rule="nonzero"/></clipPath><clipPath id="acbc7f1556"><rect x="0" width="49" y="0" height="49"/></clipPath><clipPath id="56676e8369"><path d="M 631 317 L 654 317 L 654 340 L 631 340 Z M 631 317 " clip-rule="nonzero"/></clipPath><clipPath id="e721e4ad39"><path d="M 653.636719 339.9375 L 631.65625 339.554688 L 632.042969 317.574219 L 654.023438 317.960938 Z M 653.636719 339.9375 " clip-rule="nonzero"/></clipPath><clipPath id="14665b6124"><path d="M 642.648438 339.746094 C 648.714844 339.851562 653.722656 335.019531 653.828125 328.949219 C 653.9375 322.878906 649.101562 317.875 643.03125 317.765625 C 636.964844 317.660156 631.957031 322.496094 631.851562 328.5625 C 631.746094 334.632812 636.578125 339.640625 642.648438 339.746094 Z M 642.648438 339.746094 " clip-rule="nonzero"/></clipPath><clipPath id="21c0189fa7"><path d="M 0.558594 0.480469 L 23 0.480469 L 23 23 L 0.558594 23 Z M 0.558594 0.480469 " clip-rule="nonzero"/></clipPath><clipPath id="6728ad992f"><path d="M 22.636719 22.9375 L 0.65625 22.554688 L 1.042969 0.574219 L 23.023438 0.960938 Z M 22.636719 22.9375 " clip-rule="nonzero"/></clipPath><clipPath id="5e575be4e2"><path d="M 11.648438 22.746094 C 17.714844 22.851562 22.722656 18.019531 22.828125 11.949219 C 22.9375 5.878906 18.101562 0.875 12.03125 0.765625 C 5.964844 0.660156 0.957031 5.496094 0.851562 11.5625 C 0.746094 17.632812 5.578125 22.640625 11.648438 22.746094 Z M 11.648438 22.746094 " clip-rule="nonzero"/></clipPath><clipPath id="6fee16927e"><rect x="0" width="23" y="0" height="23"/></clipPath><clipPath id="c641fac5a6"><path d="M 362 0.921875 L 597 0.921875 L 597 186 L 362 186 Z M 362 0.921875 " clip-rule="nonzero"/></clipPath><clipPath id="e046fee848"><path d="M 409 0.921875 L 679 0.921875 L 679 119 L 409 119 Z M 409 0.921875 " clip-rule="nonzero"/></clipPath><clipPath id="5cd1ea8a40"><path d="M 574 1 L 623 1 L 623 50 L 574 50 Z M 574 1 " clip-rule="nonzero"/></clipPath><clipPath id="6162e6c382"><path d="M 621.96875 49.515625 L 574.332031 48.679688 L 575.167969 1.046875 L 622.804688 1.882812 Z M 621.96875 49.515625 " clip-rule="nonzero"/></clipPath><clipPath id="05fe5914d9"><path d="M 598.152344 49.097656 C 611.304688 49.328125 622.15625 38.851562 622.386719 25.699219 C 622.617188 12.546875 612.140625 1.695312 598.988281 1.464844 C 585.832031 1.234375 574.980469 11.710938 574.75 24.863281 C 574.519531 38.015625 584.996094 48.867188 598.152344 49.097656 Z M 598.152344 49.097656 " clip-rule="nonzero"/></clipPath><clipPath id="0efe129fa0"><path d="M 0.441406 0.160156 L 48.679688 0.160156 L 48.679688 48.398438 L 0.441406 48.398438 Z M 0.441406 0.160156 " clip-rule="nonzero"/></clipPath><clipPath id="5cacaadea0"><path d="M 47.96875 48.515625 L 0.332031 47.679688 L 1.167969 0.046875 L 48.804688 0.882812 Z M 47.96875 48.515625 " clip-rule="nonzero"/></clipPath><clipPath id="10edcf8340"><path d="M 24.152344 48.097656 C 37.304688 48.328125 48.15625 37.851562 48.386719 24.699219 C 48.617188 11.546875 38.140625 0.695312 24.988281 0.464844 C 11.832031 0.234375 0.980469 10.710938 0.75 23.863281 C 0.519531 37.015625 10.996094 47.867188 24.152344 48.097656 Z M 24.152344 48.097656 " clip-rule="nonzero"/></clipPath><clipPath id="de5db75a3d"><rect x="0" width="49" y="0" height="49"/></clipPath><clipPath id="e7c355ad5c"><path d="M 587 14 L 610 14 L 610 37 L 587 37 Z M 587 14 " clip-rule="nonzero"/></clipPath><clipPath id="9fad16cc5e"><path d="M 609.535156 36.640625 L 587.558594 36.257812 L 587.945312 14.277344 L 609.921875 14.664062 Z M 609.535156 36.640625 " clip-rule="nonzero"/></clipPath><clipPath id="191604a8f4"><path d="M 598.546875 36.449219 C 604.617188 36.554688 609.625 31.722656 609.730469 25.652344 C 609.835938 19.582031 605.003906 14.578125 598.933594 14.472656 C 592.863281 14.363281 587.859375 19.199219 587.75 25.265625 C 587.644531 31.335938 592.480469 36.34375 598.546875 36.449219 Z M 598.546875 36.449219 " clip-rule="nonzero"/></clipPath><clipPath id="caa0bf6d4d"><path d="M 0.640625 0.359375 L 22.960938 0.359375 L 22.960938 22.679688 L 0.640625 22.679688 Z M 0.640625 0.359375 " clip-rule="nonzero"/></clipPath><clipPath id="07f53d8709"><path d="M 22.535156 22.640625 L 0.558594 22.257812 L 0.945312 0.277344 L 22.921875 0.664062 Z M 22.535156 22.640625 " clip-rule="nonzero"/></clipPath><clipPath id="5902236f51"><path d="M 11.546875 22.449219 C 17.617188 22.554688 22.625 17.722656 22.730469 11.652344 C 22.835938 5.582031 18.003906 0.578125 11.933594 0.472656 C 5.863281 0.363281 0.859375 5.199219 0.75 11.265625 C 0.644531 17.335938 5.480469 22.34375 11.546875 22.449219 Z M 11.546875 22.449219 " clip-rule="nonzero"/></clipPath><clipPath id="9eae8d9dc5"><rect x="0" width="23" y="0" height="23"/></clipPath><clipPath id="93566299ae"><path d="M 362 100 L 755.878906 100 L 755.878906 285 L 362 285 Z M 362 100 " clip-rule="nonzero"/></clipPath><clipPath id="e54ee38a1b"><path d="M 707 167 L 755.878906 167 L 755.878906 215 L 707 215 Z M 707 167 " clip-rule="nonzero"/></clipPath><clipPath id="db305cb217"><path d="M 754.992188 215.355469 L 707.359375 214.519531 L 708.195312 166.886719 L 755.828125 167.722656 Z M 754.992188 215.355469 " clip-rule="nonzero"/></clipPath><clipPath id="c35885d86d"><path d="M 731.175781 214.9375 C 744.328125 215.167969 755.179688 204.691406 755.410156 191.539062 C 755.640625 178.382812 745.164062 167.535156 732.011719 167.304688 C 718.855469 167.074219 708.007812 177.546875 707.777344 190.703125 C 707.542969 203.855469 718.019531 214.707031 731.175781 214.9375 Z M 731.175781 214.9375 " clip-rule="nonzero"/></clipPath><clipPath id="e36b86e4dd"><path d="M 0.398438 0 L 48.878906 0 L 48.878906 48 L 0.398438 48 Z M 0.398438 0 " clip-rule="nonzero"/></clipPath><clipPath id="a70b1fcdff"><path d="M 47.992188 48.355469 L 0.359375 47.519531 L 1.195312 -0.113281 L 48.828125 0.722656 Z M 47.992188 48.355469 " clip-rule="nonzero"/></clipPath><clipPath id="aa865fdf94"><path d="M 24.175781 47.9375 C 37.328125 48.167969 48.179688 37.691406 48.410156 24.539062 C 48.640625 11.382812 38.164062 0.535156 25.011719 0.304688 C 11.855469 0.0742188 1.007812 10.546875 0.777344 23.703125 C 0.542969 36.855469 11.019531 47.707031 24.175781 47.9375 Z M 24.175781 47.9375 " clip-rule="nonzero"/></clipPath><clipPath id="236eeb56e7"><rect x="0" width="49" y="0" height="48"/></clipPath><clipPath id="b9635d22fa"><path d="M 720 180 L 743 180 L 743 203 L 720 203 Z M 720 180 " clip-rule="nonzero"/></clipPath><clipPath id="a1679d2b8f"><path d="M 742.5625 202.480469 L 720.582031 202.09375 L 720.96875 180.117188 L 742.945312 180.503906 Z M 742.5625 202.480469 " clip-rule="nonzero"/></clipPath><clipPath id="224d5c21ae"><path d="M 731.570312 202.289062 C 737.640625 202.394531 742.648438 197.5625 742.753906 191.492188 C 742.859375 185.421875 738.027344 180.417969 731.957031 180.308594 C 725.886719 180.203125 720.882812 185.035156 720.777344 191.105469 C 720.667969 197.175781 725.503906 202.183594 731.570312 202.289062 Z M 731.570312 202.289062 " clip-rule="nonzero"/></clipPath><clipPath id="b7cd9cca33"><path d="M 0.601562 0.199219 L 22.921875 0.199219 L 22.921875 22.519531 L 0.601562 22.519531 Z M 0.601562 0.199219 " clip-rule="nonzero"/></clipPath><clipPath id="ba895b796c"><path d="M 22.5625 22.480469 L 0.582031 22.09375 L 0.96875 0.117188 L 22.945312 0.503906 Z M 22.5625 22.480469 " clip-rule="nonzero"/></clipPath><clipPath id="fd01d0c860"><path d="M 11.570312 22.289062 C 17.640625 22.394531 22.648438 17.5625 22.753906 11.492188 C 22.859375 5.421875 18.027344 0.417969 11.957031 0.308594 C 5.886719 0.203125 0.882812 5.035156 0.777344 11.105469 C 0.667969 17.175781 5.503906 22.183594 11.570312 22.289062 Z M 11.570312 22.289062 " clip-rule="nonzero"/></clipPath><clipPath id="1cac08476b"><rect x="0" width="23" y="0" height="23"/></clipPath><clipPath id="c6299569f9"><path d="M 204 46 L 253 46 L 253 94 L 204 94 Z M 204 46 " clip-rule="nonzero"/></clipPath><clipPath id="907d384e51"><path d="M 251.644531 94.359375 L 204.007812 93.523438 L 204.84375 45.890625 L 252.480469 46.726562 Z M 251.644531 94.359375 " clip-rule="nonzero"/></clipPath><clipPath id="05cd7bac85"><path d="M 227.828125 93.941406 C 240.980469 94.171875 251.832031 83.695312 252.0625 70.542969 C 252.292969 57.386719 241.816406 46.539062 228.660156 46.308594 C 215.507812 46.078125 204.65625 56.550781 204.425781 69.707031 C 204.195312 82.859375 214.671875 93.710938 227.828125 93.941406 Z M 227.828125 93.941406 " clip-rule="nonzero"/></clipPath><clipPath id="1aef2ee219"><path d="M 0.121094 0.0390625 L 48.359375 0.0390625 L 48.359375 48 L 0.121094 48 Z M 0.121094 0.0390625 " clip-rule="nonzero"/></clipPath><clipPath id="fa9c87416c"><path d="M 47.644531 48.359375 L 0.0078125 47.523438 L 0.84375 -0.109375 L 48.480469 0.726562 Z M 47.644531 48.359375 " clip-rule="nonzero"/></clipPath><clipPath id="eb1faa3a10"><path d="M 23.828125 47.941406 C 36.980469 48.171875 47.832031 37.695312 48.0625 24.542969 C 48.292969 11.386719 37.816406 0.539062 24.660156 0.308594 C 11.507812 0.078125 0.65625 10.550781 0.425781 23.707031 C 0.195312 36.859375 10.671875 47.710938 23.828125 47.941406 Z M 23.828125 47.941406 " clip-rule="nonzero"/></clipPath><clipPath id="e0c0ff3b19"><rect x="0" width="49" y="0" height="48"/></clipPath><clipPath id="82b6cb6c29"><path d="M 217 59 L 240 59 L 240 82 L 217 82 Z M 217 59 " clip-rule="nonzero"/></clipPath><clipPath id="dbe647f6df"><path d="M 239.210938 81.484375 L 217.234375 81.097656 L 217.621094 59.121094 L 239.597656 59.507812 Z M 239.210938 81.484375 " clip-rule="nonzero"/></clipPath><clipPath id="615187caaa"><path d="M 228.222656 81.292969 C 234.292969 81.398438 239.300781 76.566406 239.40625 70.496094 C 239.511719 64.425781 234.679688 59.421875 228.609375 59.3125 C 222.539062 59.207031 217.535156 64.042969 217.425781 70.109375 C 217.320312 76.179688 222.15625 81.1875 228.222656 81.292969 Z M 228.222656 81.292969 " clip-rule="nonzero"/></clipPath><clipPath id="5e11537688"><path d="M 0.320312 0 L 22.640625 0 L 22.640625 22.558594 L 0.320312 22.558594 Z M 0.320312 0 " clip-rule="nonzero"/></clipPath><clipPath id="075b0b3997"><path d="M 22.210938 22.484375 L 0.234375 22.097656 L 0.621094 0.121094 L 22.597656 0.507812 Z M 22.210938 22.484375 " clip-rule="nonzero"/></clipPath><clipPath id="0eb64c88d7"><path d="M 11.222656 22.292969 C 17.292969 22.398438 22.300781 17.566406 22.40625 11.496094 C 22.511719 5.425781 17.679688 0.421875 11.609375 0.3125 C 5.539062 0.207031 0.535156 5.042969 0.425781 11.109375 C 0.320312 17.179688 5.15625 22.1875 11.222656 22.292969 Z M 11.222656 22.292969 " clip-rule="nonzero"/></clipPath><clipPath id="f56d0d6311"><rect x="0" width="23" y="0" height="23"/></clipPath><clipPath id="838cff1ed2"><path d="M 62 83 L 111 83 L 111 132 L 62 132 Z M 62 83 " clip-rule="nonzero"/></clipPath><clipPath id="17966d9e1d"><path d="M 109.695312 131.449219 L 62.0625 130.613281 L 62.898438 82.980469 L 110.53125 83.816406 Z M 109.695312 131.449219 " clip-rule="nonzero"/></clipPath><clipPath id="da6722a667"><path d="M 85.878906 131.03125 C 99.03125 131.265625 109.882812 120.789062 110.113281 107.632812 C 110.34375 94.480469 99.867188 83.628906 86.714844 83.398438 C 73.558594 83.167969 62.710938 93.644531 62.480469 106.796875 C 62.246094 119.953125 72.722656 130.800781 85.878906 131.03125 Z M 85.878906 131.03125 " clip-rule="nonzero"/></clipPath><clipPath id="41fbed7169"><path d="M 0.0390625 0 L 48.519531 0 L 48.519531 48.480469 L 0.0390625 48.480469 Z M 0.0390625 0 " clip-rule="nonzero"/></clipPath><clipPath id="fb89ac9fd4"><path d="M 47.695312 48.449219 L 0.0625 47.613281 L 0.898438 -0.0195312 L 48.53125 0.816406 Z M 47.695312 48.449219 " clip-rule="nonzero"/></clipPath><clipPath id="5e80e6663a"><path d="M 23.878906 48.03125 C 37.03125 48.265625 47.882812 37.789062 48.113281 24.632812 C 48.34375 11.480469 37.867188 0.628906 24.714844 0.398438 C 11.558594 0.167969 0.710938 10.644531 0.480469 23.796875 C 0.246094 36.953125 10.722656 47.800781 23.878906 48.03125 Z M 23.878906 48.03125 " clip-rule="nonzero"/></clipPath><clipPath id="adb233c442"><rect x="0" width="49" y="0" height="49"/></clipPath><clipPath id="bc195ed98f"><path d="M 75 96 L 98 96 L 98 119 L 75 119 Z M 75 96 " clip-rule="nonzero"/></clipPath><clipPath id="3a2162d3cf"><path d="M 97.265625 118.578125 L 75.285156 118.191406 L 75.671875 96.210938 L 97.648438 96.597656 Z M 97.265625 118.578125 " clip-rule="nonzero"/></clipPath><clipPath id="a897b7ec78"><path d="M 86.273438 118.382812 C 92.34375 118.492188 97.351562 113.65625 97.457031 107.585938 C 97.5625 101.519531 92.730469 96.511719 86.660156 96.40625 C 80.589844 96.300781 75.585938 101.132812 75.480469 107.203125 C 75.371094 113.269531 80.207031 118.277344 86.273438 118.382812 Z M 86.273438 118.382812 " clip-rule="nonzero"/></clipPath><clipPath id="5b437d63b4"><path d="M 0.238281 0.199219 L 22.800781 0.199219 L 22.800781 22.519531 L 0.238281 22.519531 Z M 0.238281 0.199219 " clip-rule="nonzero"/></clipPath><clipPath id="b041101f13"><path d="M 22.265625 22.578125 L 0.285156 22.191406 L 0.671875 0.210938 L 22.648438 0.597656 Z M 22.265625 22.578125 " clip-rule="nonzero"/></clipPath><clipPath id="7d643be430"><path d="M 11.273438 22.382812 C 17.34375 22.492188 22.351562 17.65625 22.457031 11.585938 C 22.5625 5.519531 17.730469 0.511719 11.660156 0.40625 C 5.589844 0.300781 0.585938 5.132812 0.480469 11.203125 C 0.371094 17.269531 5.207031 22.277344 11.273438 22.382812 Z M 11.273438 22.382812 " clip-rule="nonzero"/></clipPath><clipPath id="c32ecc0ca7"><rect x="0" width="23" y="0" height="23"/></clipPath><clipPath id="dcf82bbe65"><path d="M 7.855469 190.972656 L 55.5 190.972656 L 55.5 238.613281 L 7.855469 238.613281 Z M 7.855469 190.972656 " clip-rule="nonzero"/></clipPath><clipPath id="442e886259"><path d="M 31.679688 190.972656 C 18.523438 190.972656 7.855469 201.636719 7.855469 214.792969 C 7.855469 227.949219 18.523438 238.613281 31.679688 238.613281 C 44.832031 238.613281 55.5 227.949219 55.5 214.792969 C 55.5 201.636719 44.832031 190.972656 31.679688 190.972656 Z M 31.679688 190.972656 " clip-rule="nonzero"/></clipPath><clipPath id="6179a8b89c"><path d="M 0.855469 0.972656 L 48.5 0.972656 L 48.5 48.613281 L 0.855469 48.613281 Z M 0.855469 0.972656 " clip-rule="nonzero"/></clipPath><clipPath id="4720a15cd9"><path d="M 24.679688 0.972656 C 11.523438 0.972656 0.855469 11.636719 0.855469 24.792969 C 0.855469 37.949219 11.523438 48.613281 24.679688 48.613281 C 37.832031 48.613281 48.5 37.949219 48.5 24.792969 C 48.5 11.636719 37.832031 0.972656 24.679688 0.972656 Z M 24.679688 0.972656 " clip-rule="nonzero"/></clipPath><clipPath id="a6e1d79145"><rect x="0" width="49" y="0" height="49"/></clipPath><clipPath id="3e32ca40af"><path d="M 20.488281 203.601562 L 42.46875 203.601562 L 42.46875 225.582031 L 20.488281 225.582031 Z M 20.488281 203.601562 " clip-rule="nonzero"/></clipPath><clipPath id="e0a30de9f8"><path d="M 31.476562 203.601562 C 25.40625 203.601562 20.488281 208.523438 20.488281 214.59375 C 20.488281 220.664062 25.40625 225.582031 31.476562 225.582031 C 37.546875 225.582031 42.46875 220.664062 42.46875 214.59375 C 42.46875 208.523438 37.546875 203.601562 31.476562 203.601562 Z M 31.476562 203.601562 " clip-rule="nonzero"/></clipPath><clipPath id="8058b6c6fa"><path d="M 0.488281 0.601562 L 22.46875 0.601562 L 22.46875 22.582031 L 0.488281 22.582031 Z M 0.488281 0.601562 " clip-rule="nonzero"/></clipPath><clipPath id="70a897bc94"><path d="M 11.476562 0.601562 C 5.40625 0.601562 0.488281 5.523438 0.488281 11.59375 C 0.488281 17.664062 5.40625 22.582031 11.476562 22.582031 C 17.546875 22.582031 22.46875 17.664062 22.46875 11.59375 C 22.46875 5.523438 17.546875 0.601562 11.476562 0.601562 Z M 11.476562 0.601562 " clip-rule="nonzero"/></clipPath><clipPath id="5eb3e65ae8"><rect x="0" width="23" y="0" height="23"/></clipPath><clipPath id="5cf9a15113"><path d="M 304 0.921875 L 505 0.921875 L 505 186 L 304 186 Z M 304 0.921875 " clip-rule="nonzero"/></clipPath><clipPath id="fdb2908b2e"><path d="M 188 0.921875 L 389 0.921875 L 389 194 L 188 194 Z M 188 0.921875 " clip-rule="nonzero"/></clipPath><clipPath id="b7986bee0b"><path d="M 102 375 L 698 375 L 698 514.761719 L 102 514.761719 Z M 102 375 " clip-rule="nonzero"/></clipPath><clipPath id="5c6fd0e65b"><rect x="0" width="596" y="0" height="140"/></clipPath><clipPath id="5e4fb24149"><rect x="0" width="756" y="0" height="515"/></clipPath></defs><rect x="-81" width="972" fill="#ffffff" y="-80.999999" height="971.999992" fill-opacity="1"/><rect x="-81" width="972" fill="#ffffff" y="-80.999999" height="971.999992" fill-opacity="1"/><g transform="matrix(1, 0, 0, 1, 27, 151)"><g clip-path="url(#5e4fb24149)"><path stroke-linecap="butt" transform="matrix(4.009339, 0, 0, 4.009339, 58.573967, 63.37938)" fill="none" stroke-linejoin="miter" d="M 0.0000627423 2.000095 L 25.03049 2.000095 " stroke="#000000" stroke-width="4" stroke-opacity="1" stroke-miterlimit="4"/><g clip-path="url(#23e4eb0bb9)"><g clip-path="url(#99e34792f7)"><g transform="matrix(1, 0, 0, 1, 23, 47)"><g clip-path="url(#3d9ac862be)"><g clip-path="url(#6e4736b905)"><g clip-path="url(#e10c062b64)"><path fill="#000000" d="M 0.960938 0.777344 L 48.605469 0.777344 L 48.605469 48.417969 L 0.960938 48.417969 Z M 0.960938 0.777344 " fill-opacity="1" fill-rule="nonzero"/></g></g></g></g></g></g><g clip-path="url(#534fe9df2b)"><g clip-path="url(#2e4da416e1)"><g transform="matrix(1, 0, 0, 1, 36, 60)"><g clip-path="url(#076e29797f)"><g clip-path="url(#00fed805ff)"><g clip-path="url(#10b7a16da0)"><path fill="#ffffff" d="M 0.59375 0.40625 L 22.574219 0.40625 L 22.574219 22.390625 L 0.59375 22.390625 Z M 0.59375 0.40625 " fill-opacity="1" fill-rule="nonzero"/></g></g></g></g></g></g><g clip-path="url(#5cb3d2045e)"><path stroke-linecap="butt" transform="matrix(2.223393, 3.336363, -3.336363, 2.223393, 159.977396, 60.431777)" fill="none" stroke-linejoin="miter" d="M 0.0000735159 2.000044 L 41.812112 1.999973 " stroke="#000000" stroke-width="4" stroke-opacity="1" stroke-miterlimit="4"/></g><path stroke-linecap="butt" transform="matrix(4.009339, 0.000000000000004822, -0.000000000000004822, 4.009339, 14.548635, 135.076842)" fill="none" stroke-linejoin="miter" d="M -0.000439057 1.999558 L 47.262262 1.999558 " stroke="#000000" stroke-width="4" stroke-opacity="1" stroke-miterlimit="4"/><g clip-path="url(#348fc35556)"><g clip-path="url(#839d1fb20c)"><g transform="matrix(1, 0, 0, 1, -0.000000000000003553, 119)"><g clip-path="url(#74eb241a03)"><g clip-path="url(#a9b0a4073e)"><g clip-path="url(#be11d94497)"><path fill="#000000" d="M 0.140625 0.273438 L 47.785156 0.273438 L 47.785156 47.917969 L 0.140625 47.917969 Z M 0.140625 0.273438 " fill-opacity="1" fill-rule="nonzero"/></g></g></g></g></g></g><path stroke-linecap="butt" transform="matrix(4.009339, 0, 0, 4.009339, 93.185052, 288.550448)" fill="none" stroke-linejoin="miter" d="M -0.000363677 2.000296 L 25.031038 2.000296 " stroke="#000000" stroke-width="4" stroke-opacity="1" stroke-miterlimit="4"/><g clip-path="url(#792ce13832)"><g clip-path="url(#baba60361c)"><g transform="matrix(1, 0, 0, 1, 58, 272)"><g clip-path="url(#7940f895f6)"><g clip-path="url(#b591e2d433)"><g clip-path="url(#7ddc3d368f)"><path fill="#000000" d="M 0.574219 0.949219 L 48.214844 0.949219 L 48.214844 48.589844 L 0.574219 48.589844 Z M 0.574219 0.949219 " fill-opacity="1" fill-rule="nonzero"/></g></g></g></g></g></g><g clip-path="url(#8e3d2eed04)"><g clip-path="url(#cc047a5a21)"><g transform="matrix(1, 0, 0, 1, 71, 285)"><g clip-path="url(#b6a88652fb)"><g clip-path="url(#93da17e4d1)"><g clip-path="url(#5d05a3c45a)"><path fill="#ffffff" d="M 0.203125 0.578125 L 22.183594 0.578125 L 22.183594 22.558594 L 0.203125 22.558594 Z M 0.203125 0.578125 " fill-opacity="1" fill-rule="nonzero"/></g></g></g></g></g></g><path stroke-linecap="butt" transform="matrix(1.961312, -3.496863, 3.496863, 1.961312, 180.512367, 299.475632)" fill="none" stroke-linejoin="miter" d="M 0.000170434 2.000396 L 59.483086 2.000248 " stroke="#000000" stroke-width="4" stroke-opacity="1" stroke-miterlimit="4"/><path stroke-linecap="butt" transform="matrix(4.009339, 0.000000000000024385, -0.000000000000024385, 4.009339, 296.003865, 95.419247)" fill="none" stroke-linejoin="miter" d="M 0.0000103259 1.999894 L 9.346353 1.999894 " stroke="#000000" stroke-width="4" stroke-opacity="1" stroke-miterlimit="4"/><path stroke-linecap="butt" transform="matrix(1.775753, -3.594649, 3.594649, 1.775753, 232.461523, 358.687747)" fill="none" stroke-linejoin="miter" d="M 0.00038566 2.000233 L 61.955384 1.99991 " stroke="#ff3131" stroke-width="4" stroke-opacity="1" stroke-miterlimit="4"/><path stroke-linecap="butt" transform="matrix(-1.621618, -3.666763, 3.666763, -1.621618, 381.294797, 242.139923)" fill="none" stroke-linejoin="miter" d="M -0.000458168 1.999956 L 38.301964 1.999579 " stroke="#000000" stroke-width="4" stroke-opacity="1" stroke-miterlimit="4"/><path stroke-linecap="butt" transform="matrix(-4.009339, -0.000228941, 0.000228941, -4.009339, 575.684397, 241.505264)" fill="none" stroke-linejoin="miter" d="M 0.000314569 1.999577 L 48.749779 1.999716 " stroke="#000000" stroke-width="4" stroke-opacity="1" stroke-miterlimit="4"/><g clip-path="url(#0b0766bdfc)"><g clip-path="url(#1a9d9579be)"><g clip-path="url(#374bac787a)"><g transform="matrix(1, 0, 0, 1, 570, 209)"><g clip-path="url(#e9c3ef7ffe)"><g clip-path="url(#165ee2ac08)"><g clip-path="url(#20f862b4b0)"><g clip-path="url(#1f922fbb09)"><path fill="#000000" d="M 47.597656 48.679688 L -0.0351562 47.84375 L 0.800781 0.210938 L 48.433594 1.046875 Z M 47.597656 48.679688 " fill-opacity="1" fill-rule="nonzero"/></g></g></g></g></g></g></g></g><g clip-path="url(#c78d4162bc)"><g clip-path="url(#bc2b5b7748)"><g clip-path="url(#4fdde23a62)"><g transform="matrix(1, 0, 0, 1, 583, 222)"><g clip-path="url(#b7e0cc184b)"><g clip-path="url(#9fa55eb4f3)"><g clip-path="url(#3eff46177f)"><g clip-path="url(#02259f1734)"><path fill="#ffffff" d="M 22.167969 22.804688 L 0.1875 22.417969 L 0.574219 0.441406 L 22.550781 0.828125 Z M 22.167969 22.804688 " fill-opacity="1" fill-rule="nonzero"/></g></g></g></g></g></g></g></g><path stroke-linecap="butt" transform="matrix(2.030358, -3.457231, 3.457231, 2.030358, 372.175531, 357.675658)" fill="none" stroke-linejoin="miter" d="M -0.000429239 2.000209 L 76.971018 1.999563 " stroke="#000000" stroke-width="4" stroke-opacity="1" stroke-miterlimit="4"/><g clip-path="url(#2fb85bcb0f)"><path stroke-linecap="butt" transform="matrix(1.991249, -3.479903, 3.479903, 1.991249, 357.662797, 179.288459)" fill="none" stroke-linejoin="miter" d="M 0.000121464 1.999497 L 27.846924 2.000422 " stroke="#000000" stroke-width="4" stroke-opacity="1" stroke-miterlimit="4"/></g><path stroke-linecap="butt" transform="matrix(4.009309, 0.0154355, -0.0154355, 4.009309, 407.611086, 86.371463)" fill="none" stroke-linejoin="miter" d="M 0.000453632 2.000134 L 53.688006 1.999991 " stroke="#000000" stroke-width="4" stroke-opacity="1" stroke-miterlimit="4"/><g clip-path="url(#3704dd50c9)"><g clip-path="url(#92462e5a79)"><g transform="matrix(1, 0, 0, 1, 599, 70)"><g clip-path="url(#46ead7d401)"><g clip-path="url(#cbb347cc65)"><g clip-path="url(#516bd5ac51)"><path fill="#000000" d="M 0.679688 0.570312 L 48.324219 0.570312 L 48.324219 48.210938 L 0.679688 48.210938 Z M 0.679688 0.570312 " fill-opacity="1" fill-rule="nonzero"/></g></g></g></g></g></g><g clip-path="url(#697e3c0964)"><g clip-path="url(#b4daee77d6)"><g transform="matrix(1, 0, 0, 1, 507, 71)"><g clip-path="url(#0eff14465d)"><g clip-path="url(#5fd36881d1)"><g clip-path="url(#d55674789f)"><path fill="#000000" d="M 0.9375 0.398438 L 48.578125 0.398438 L 48.578125 48.039062 L 0.9375 48.039062 Z M 0.9375 0.398438 " fill-opacity="1" fill-rule="nonzero"/></g></g></g></g></g></g><path stroke-linecap="butt" transform="matrix(4.009339, -0.000000000000006464, 0.000000000000006464, 4.009339, 507.967945, 143.095456)" fill="none" stroke-linejoin="miter" d="M 0.000200884 1.999787 L 34.757918 1.999787 " stroke="#000000" stroke-width="4" stroke-opacity="1" stroke-miterlimit="4"/><g clip-path="url(#0a7294aa7d)"><g clip-path="url(#f93728d216)"><g transform="matrix(1, 0, 0, 1, 642, 127)"><g clip-path="url(#afa413df50)"><g clip-path="url(#26626822bb)"><g clip-path="url(#fdbc0cdfc7)"><path fill="#000000" d="M 0.597656 0.292969 L 48.238281 0.292969 L 48.238281 47.933594 L 0.597656 47.933594 Z M 0.597656 0.292969 " fill-opacity="1" fill-rule="nonzero"/></g></g></g></g></g></g><path stroke-linecap="butt" transform="matrix(4.009103, 0.043482, -0.043482, 4.009103, 297.019324, 352.688746)" fill="none" stroke-linejoin="miter" d="M 0.000307933 2.000016 L 23.779203 2.000316 " stroke="#000000" stroke-width="4" stroke-opacity="1" stroke-miterlimit="4"/><path stroke-linecap="butt" transform="matrix(-1.900314, -3.530383, 3.530383, -1.900314, 295.764978, 376.518469)" fill="none" stroke-linejoin="miter" d="M -0.0000191424 1.999557 L 6.226985 1.999907 " stroke="#ffffff" stroke-width="4" stroke-opacity="1" stroke-miterlimit="4"/><g clip-path="url(#064951b7b6)"><path stroke-linecap="butt" transform="matrix(-1.818763, -3.57308, 3.57308, -1.818763, 357.958227, 339.440259)" fill="none" stroke-linejoin="miter" d="M 0.000311496 2.000461 L 71.413631 1.999674 " stroke="#ff3131" stroke-width="4" stroke-opacity="1" stroke-miterlimit="4"/></g><path stroke-linecap="butt" transform="matrix(4.009098, 0.0439293, -0.0439293, 4.009098, 364.801801, 320.590562)" fill="none" stroke-linejoin="miter" d="M 0.000226611 2.000151 L 67.668578 2.000159 " stroke="#ff3131" stroke-width="4" stroke-opacity="1" stroke-miterlimit="4"/><g clip-path="url(#344980d269)"><g clip-path="url(#7df398caec)"><g clip-path="url(#9ee4a55197)"><g transform="matrix(1, 0, 0, 1, 618, 304)"><g clip-path="url(#acbc7f1556)"><g clip-path="url(#5dddbc7e93)"><g clip-path="url(#f036f0e064)"><g clip-path="url(#a26689ba6f)"><path fill="#ff000a" d="M 48.066406 48.8125 L 0.433594 47.976562 L 1.269531 0.34375 L 48.902344 1.179688 Z M 48.066406 48.8125 " fill-opacity="1" fill-rule="nonzero"/></g></g></g></g></g></g></g></g><g clip-path="url(#56676e8369)"><g clip-path="url(#e721e4ad39)"><g clip-path="url(#14665b6124)"><g transform="matrix(1, 0, 0, 1, 631, 317)"><g clip-path="url(#6fee16927e)"><g clip-path="url(#21c0189fa7)"><g clip-path="url(#6728ad992f)"><g clip-path="url(#5e575be4e2)"><path fill="#ffffff" d="M 22.636719 22.9375 L 0.65625 22.554688 L 1.042969 0.574219 L 23.023438 0.960938 Z M 22.636719 22.9375 " fill-opacity="1" fill-rule="nonzero"/></g></g></g></g></g></g></g></g><path stroke-linecap="butt" transform="matrix(0, -4.009339, 4.009339, 0, 447.783844, 337.787768)" fill="none" stroke-linejoin="miter" d="M -0.000322819 1.999566 L 62.712634 1.999566 " stroke="#ff3131" stroke-width="4" stroke-opacity="1" stroke-miterlimit="4"/><g clip-path="url(#c641fac5a6)"><path stroke-linecap="butt" transform="matrix(2.370187, -3.233731, 3.233731, 2.370187, 447.080068, 89.783406)" fill="none" stroke-linejoin="miter" d="M -0.000027389 1.999818 L 21.988639 1.999798 " stroke="#ff3131" stroke-width="4" stroke-opacity="1" stroke-miterlimit="4"/></g><g clip-path="url(#e046fee848)"><path stroke-linecap="butt" transform="matrix(4.006948, -0.138456, 0.138456, 4.006948, 500.081569, 19.489191)" fill="none" stroke-linejoin="miter" d="M 0.000215698 2.000212 L 21.775876 2.00005 " stroke="#ff3131" stroke-width="4" stroke-opacity="1" stroke-miterlimit="4"/></g><g clip-path="url(#5cd1ea8a40)"><g clip-path="url(#6162e6c382)"><g clip-path="url(#05fe5914d9)"><g transform="matrix(1, 0, 0, 1, 574, 1)"><g clip-path="url(#de5db75a3d)"><g clip-path="url(#0efe129fa0)"><g clip-path="url(#5cacaadea0)"><g clip-path="url(#10edcf8340)"><path fill="#ff000a" d="M 47.96875 48.515625 L 0.332031 47.679688 L 1.167969 0.046875 L 48.804688 0.882812 Z M 47.96875 48.515625 " fill-opacity="1" fill-rule="nonzero"/></g></g></g></g></g></g></g></g><g clip-path="url(#e7c355ad5c)"><g clip-path="url(#9fad16cc5e)"><g clip-path="url(#191604a8f4)"><g transform="matrix(1, 0, 0, 1, 587, 14)"><g clip-path="url(#9eae8d9dc5)"><g clip-path="url(#caa0bf6d4d)"><g clip-path="url(#07f53d8709)"><g clip-path="url(#5902236f51)"><path fill="#ffffff" d="M 22.535156 22.640625 L 0.558594 22.257812 L 0.945312 0.277344 L 22.921875 0.664062 Z M 22.535156 22.640625 " fill-opacity="1" fill-rule="nonzero"/></g></g></g></g></g></g></g></g><g clip-path="url(#93566299ae)"><path stroke-linecap="butt" transform="matrix(4.009098, 0.0439293, -0.0439293, 4.009098, 453.726483, 183.133206)" fill="none" stroke-linejoin="miter" d="M -0.000472757 2.00024 L 67.668853 2.000237 " stroke="#ff3131" stroke-width="4" stroke-opacity="1" stroke-miterlimit="4"/></g><g clip-path="url(#e54ee38a1b)"><g clip-path="url(#db305cb217)"><g clip-path="url(#c35885d86d)"><g transform="matrix(1, 0, 0, 1, 707, 167)"><g clip-path="url(#236eeb56e7)"><g clip-path="url(#e36b86e4dd)"><g clip-path="url(#a70b1fcdff)"><g clip-path="url(#aa865fdf94)"><path fill="#ff000a" d="M 47.992188 48.355469 L 0.359375 47.519531 L 1.195312 -0.113281 L 48.828125 0.722656 Z M 47.992188 48.355469 " fill-opacity="1" fill-rule="nonzero"/></g></g></g></g></g></g></g></g><g clip-path="url(#b9635d22fa)"><g clip-path="url(#a1679d2b8f)"><g clip-path="url(#224d5c21ae)"><g transform="matrix(1, 0, 0, 1, 720, 180)"><g clip-path="url(#1cac08476b)"><g clip-path="url(#b7cd9cca33)"><g clip-path="url(#ba895b796c)"><g clip-path="url(#fd01d0c860)"><path fill="#ffffff" d="M 22.5625 22.480469 L 0.582031 22.09375 L 0.96875 0.117188 L 22.945312 0.503906 Z M 22.5625 22.480469 " fill-opacity="1" fill-rule="nonzero"/></g></g></g></g></g></g></g></g><g clip-path="url(#c6299569f9)"><g clip-path="url(#907d384e51)"><g clip-path="url(#05cd7bac85)"><g transform="matrix(1, 0, 0, 1, 204, 46)"><g clip-path="url(#e0c0ff3b19)"><g clip-path="url(#1aef2ee219)"><g clip-path="url(#fa9c87416c)"><g clip-path="url(#eb1faa3a10)"><path fill="#ff000a" d="M 47.644531 48.359375 L 0.0078125 47.523438 L 0.84375 -0.109375 L 48.480469 0.726562 Z M 47.644531 48.359375 " fill-opacity="1" fill-rule="nonzero"/></g></g></g></g></g></g></g></g><g clip-path="url(#82b6cb6c29)"><g clip-path="url(#dbe647f6df)"><g clip-path="url(#615187caaa)"><g transform="matrix(1, 0, 0, 1, 217, 59)"><g clip-path="url(#f56d0d6311)"><g clip-path="url(#5e11537688)"><g clip-path="url(#075b0b3997)"><g clip-path="url(#0eb64c88d7)"><path fill="#ffffff" d="M 22.210938 22.484375 L 0.234375 22.097656 L 0.621094 0.121094 L 22.597656 0.507812 Z M 22.210938 22.484375 " fill-opacity="1" fill-rule="nonzero"/></g></g></g></g></g></g></g></g><path stroke-linecap="butt" transform="matrix(4.009339, 0.000000000000024385, -0.000000000000024385, 4.009339, 208.809851, 350.74976)" fill="none" stroke-linejoin="miter" d="M -0.00031354 2.000273 L 9.346029 2.000273 " stroke="#ff3131" stroke-width="4" stroke-opacity="1" stroke-miterlimit="4"/><path stroke-linecap="butt" transform="matrix(-1.80099, -3.582071, 3.582071, -1.80099, 208.712173, 365.843335)" fill="none" stroke-linejoin="miter" d="M -0.000038362 1.999614 L 68.126306 2.000586 " stroke="#ff3131" stroke-width="4" stroke-opacity="1" stroke-miterlimit="4"/><g clip-path="url(#838cff1ed2)"><g clip-path="url(#17966d9e1d)"><g clip-path="url(#da6722a667)"><g transform="matrix(1, 0, 0, 1, 62, 83)"><g clip-path="url(#adb233c442)"><g clip-path="url(#41fbed7169)"><g clip-path="url(#fb89ac9fd4)"><g clip-path="url(#5e80e6663a)"><path fill="#ff000a" d="M 47.695312 48.449219 L 0.0625 47.613281 L 0.898438 -0.0195312 L 48.53125 0.816406 Z M 47.695312 48.449219 " fill-opacity="1" fill-rule="nonzero"/></g></g></g></g></g></g></g></g><g clip-path="url(#bc195ed98f)"><g clip-path="url(#3a2162d3cf)"><g clip-path="url(#a897b7ec78)"><g transform="matrix(1, 0, 0, 1, 75, 96)"><g clip-path="url(#c32ecc0ca7)"><g clip-path="url(#5b437d63b4)"><g clip-path="url(#b041101f13)"><g clip-path="url(#7d643be430)"><path fill="#ffffff" d="M 22.265625 22.578125 L 0.285156 22.191406 L 0.671875 0.210938 L 22.648438 0.597656 Z M 22.265625 22.578125 " fill-opacity="1" fill-rule="nonzero"/></g></g></g></g></g></g></g></g><path stroke-linecap="butt" transform="matrix(4.009339, 0, 0, 4.009339, 42.468194, 206.573868)" fill="none" stroke-linejoin="miter" d="M 0.000138575 2.0003 L 25.030566 2.0003 " stroke="#ff3131" stroke-width="4" stroke-opacity="1" stroke-miterlimit="4"/><g clip-path="url(#dcf82bbe65)"><g clip-path="url(#442e886259)"><g transform="matrix(1, 0, 0, 1, 7, 190)"><g clip-path="url(#a6e1d79145)"><g clip-path="url(#6179a8b89c)"><g clip-path="url(#4720a15cd9)"><path fill="#ff000a" d="M 0.855469 0.972656 L 48.5 0.972656 L 48.5 48.613281 L 0.855469 48.613281 Z M 0.855469 0.972656 " fill-opacity="1" fill-rule="nonzero"/></g></g></g></g></g></g><g clip-path="url(#3e32ca40af)"><g clip-path="url(#e0a30de9f8)"><g transform="matrix(1, 0, 0, 1, 20, 203)"><g clip-path="url(#5eb3e65ae8)"><g clip-path="url(#8058b6c6fa)"><g clip-path="url(#70a897bc94)"><path fill="#ffffff" d="M 0.488281 0.601562 L 22.46875 0.601562 L 22.46875 22.582031 L 0.488281 22.582031 Z M 0.488281 0.601562 " fill-opacity="1" fill-rule="nonzero"/></g></g></g></g></g></g><path stroke-linecap="butt" transform="matrix(4.009339, 0, 0, 4.009339, 153.317793, 47.777812)" fill="none" stroke-linejoin="miter" d="M -0.000345837 2.000096 L 7.49485 2.000096 " stroke="#ffffff" stroke-width="4" stroke-opacity="1" stroke-miterlimit="4"/><path stroke-linecap="butt" transform="matrix(4.009339, 0, 0, 4.009339, 394.654434, 70.155175)" fill="none" stroke-linejoin="miter" d="M 0.000452871 2.000481 L 7.494675 2.000481 " stroke="#ffffff" stroke-width="4" stroke-opacity="1" stroke-miterlimit="4"/><g clip-path="url(#5cf9a15113)"><path stroke-linecap="butt" transform="matrix(2.442506, -3.179459, 3.179459, 2.442506, 389.186116, 90.025017)" fill="none" stroke-linejoin="miter" d="M 0.000254418 2.000383 L 7.494586 2.0003 " stroke="#ffffff" stroke-width="4" stroke-opacity="1" stroke-miterlimit="4"/></g><path stroke-linecap="butt" transform="matrix(2.209181, -3.345791, 3.345791, 2.209181, 379.08341, 375.807611)" fill="none" stroke-linejoin="miter" d="M -0.000336336 1.999757 L 7.494254 2.000262 " stroke="#ffffff" stroke-width="4" stroke-opacity="1" stroke-miterlimit="4"/><path stroke-linecap="butt" transform="matrix(4.009339, 0, 0, 4.009339, 274.74696, 78.492684)" fill="none" stroke-linejoin="miter" d="M -0.000216138 2.000089 L 7.494006 2.000089 " stroke="#ffffff" stroke-width="4" stroke-opacity="1" stroke-miterlimit="4"/><g clip-path="url(#fdb2908b2e)"><path stroke-linecap="butt" transform="matrix(2.442506, -3.179459, 3.179459, 2.442506, 273.254432, 97.664852)" fill="none" stroke-linejoin="miter" d="M -0.000191809 2.000126 L 7.49414 2.000043 " stroke="#ffffff" stroke-width="4" stroke-opacity="1" stroke-miterlimit="4"/></g><path stroke-linecap="butt" transform="matrix(4.009339, 0, 0, 4.009339, 335.07942, 335.816528)" fill="none" stroke-linejoin="miter" d="M -0.000322917 2.000182 L 7.493899 2.000182 " stroke="#ffffff" stroke-width="4" stroke-opacity="1" stroke-miterlimit="4"/><g clip-path="url(#b7986bee0b)"><g transform="matrix(1, 0, 0, 1, 102, 375)"><g clip-path="url(#5c6fd0e65b)"><g fill="#ff000a" fill-opacity="1"><g transform="translate(0.384767, 64.872426)"><g><path d="M 6.984375 -1.015625 L 6.984375 -2.203125 C 6.984375 -2.878906 6.644531 -3.21875 5.96875 -3.21875 L 4.78125 -3.21875 C 4.101562 -3.21875 3.765625 -3.5625 3.765625 -4.25 L 3.765625 -49.28125 C 3.765625 -49.96875 4.101562 -50.3125 4.78125 -50.3125 L 17.25 -50.3125 C 17.9375 -50.3125 18.28125 -49.96875 18.28125 -49.28125 L 18.28125 -4.25 C 18.28125 -3.5625 18.617188 -3.21875 19.296875 -3.21875 L 20.859375 -3.21875 C 21.535156 -3.21875 21.875 -3.5625 21.875 -4.25 L 21.875 -5.421875 C 21.875 -6.109375 22.210938 -6.453125 22.890625 -6.453125 L 24.078125 -6.453125 C 24.753906 -6.453125 25.09375 -6.789062 25.09375 -7.46875 L 25.09375 -49.28125 C 25.09375 -49.96875 25.4375 -50.3125 26.125 -50.3125 L 38.59375 -50.3125 C 39.269531 -50.3125 39.609375 -49.96875 39.609375 -49.28125 L 39.609375 -4.25 C 39.609375 -3.5625 39.953125 -3.21875 40.640625 -3.21875 L 42.1875 -3.21875 C 42.875 -3.21875 43.21875 -3.5625 43.21875 -4.25 L 43.21875 -5.421875 C 43.21875 -6.109375 43.554688 -6.453125 44.234375 -6.453125 L 45.421875 -6.453125 C 46.097656 -6.453125 46.4375 -6.789062 46.4375 -7.46875 L 46.4375 -49.28125 C 46.4375 -49.96875 46.78125 -50.3125 47.46875 -50.3125 L 59.9375 -50.3125 C 60.613281 -50.3125 60.953125 -49.96875 60.953125 -49.28125 L 60.953125 -13.921875 C 60.953125 -13.242188 60.613281 -12.90625 59.9375 -12.90625 L 58.75 -12.90625 C 58.070312 -12.90625 57.734375 -12.5625 57.734375 -11.875 L 57.734375 -10.703125 C 57.734375 -10.015625 57.390625 -9.671875 56.703125 -9.671875 L 53.90625 -9.671875 C 53.226562 -9.671875 52.890625 -9.332031 52.890625 -8.65625 L 52.890625 -7.46875 C 52.890625 -6.789062 52.550781 -6.453125 51.875 -6.453125 L 50.6875 -6.453125 C 50.007812 -6.453125 49.671875 -6.109375 49.671875 -5.421875 L 49.671875 -4.25 C 49.671875 -3.5625 49.328125 -3.21875 48.640625 -3.21875 L 48.109375 -3.21875 C 47.421875 -3.21875 47.078125 -2.878906 47.078125 -2.203125 L 47.078125 -1.015625 C 47.078125 -0.335938 46.738281 0 46.0625 0 L 35.796875 0 C 35.117188 0 34.78125 -0.335938 34.78125 -1.015625 L 34.78125 -2.203125 C 34.78125 -2.878906 34.4375 -3.21875 33.75 -3.21875 L 32.578125 -3.21875 C 31.890625 -3.21875 31.546875 -3.5625 31.546875 -4.25 L 31.546875 -5.421875 C 31.546875 -6.109375 31.207031 -6.453125 30.53125 -6.453125 L 29.34375 -6.453125 C 28.664062 -6.453125 28.328125 -6.109375 28.328125 -5.421875 L 28.328125 -4.25 C 28.328125 -3.5625 27.988281 -3.21875 27.3125 -3.21875 L 26.125 -3.21875 C 25.4375 -3.21875 25.09375 -2.878906 25.09375 -2.203125 L 25.09375 -1.015625 C 25.09375 -0.335938 24.753906 0 24.078125 0 L 8.015625 0 C 7.328125 0 6.984375 -0.335938 6.984375 -1.015625 Z M 6.984375 -1.015625 "/></g></g></g><g fill="#ff000a" fill-opacity="1"><g transform="translate(107.540893, 64.872426)"><g><path d="M 3.765625 -1.015625 L 3.765625 -49.28125 C 3.765625 -49.96875 4.101562 -50.3125 4.78125 -50.3125 L 34.984375 -50.3125 C 35.671875 -50.3125 36.015625 -49.96875 36.015625 -49.28125 L 36.015625 -36.8125 C 36.015625 -36.132812 35.671875 -35.796875 34.984375 -35.796875 L 25.75 -35.796875 C 25.0625 -35.796875 24.71875 -36.132812 24.71875 -36.8125 L 24.71875 -38 C 24.71875 -38.675781 24.378906 -39.015625 23.703125 -39.015625 L 22.515625 -39.015625 C 21.835938 -39.015625 21.5 -39.359375 21.5 -40.046875 L 21.5 -46.0625 C 21.5 -46.738281 21.160156 -47.078125 20.484375 -47.078125 L 19.296875 -47.078125 C 18.617188 -47.078125 18.28125 -46.738281 18.28125 -46.0625 L 18.28125 -29.40625 C 18.28125 -28.71875 18.617188 -28.375 19.296875 -28.375 L 29.71875 -28.375 C 30.40625 -28.375 30.75 -28.035156 30.75 -27.359375 L 30.75 -22.953125 C 30.75 -22.273438 30.40625 -21.9375 29.71875 -21.9375 L 19.296875 -21.9375 C 18.617188 -21.9375 18.28125 -21.59375 18.28125 -20.90625 L 18.28125 -4.25 C 18.28125 -3.5625 18.617188 -3.21875 19.296875 -3.21875 L 20.484375 -3.21875 C 21.160156 -3.21875 21.5 -3.5625 21.5 -4.25 L 21.5 -10.265625 C 21.5 -10.941406 21.835938 -11.28125 22.515625 -11.28125 L 23.703125 -11.28125 C 24.378906 -11.28125 24.71875 -11.625 24.71875 -12.3125 L 24.71875 -13.484375 C 24.71875 -14.171875 25.0625 -14.515625 25.75 -14.515625 L 34.984375 -14.515625 C 35.671875 -14.515625 36.015625 -14.171875 36.015625 -13.484375 L 36.015625 -1.015625 C 36.015625 -0.335938 35.671875 0 34.984375 0 L 4.78125 0 C 4.101562 0 3.765625 -0.335938 3.765625 -1.015625 Z M 3.765625 -1.015625 "/></g></g></g><g fill="#ff000a" fill-opacity="1"><g transform="translate(189.226042, 64.872426)"><g><path d="M 3.765625 -1.015625 L 3.765625 -49.28125 C 3.765625 -49.96875 4.101562 -50.3125 4.78125 -50.3125 L 34.984375 -50.3125 C 35.671875 -50.3125 36.015625 -49.96875 36.015625 -49.28125 L 36.0625 -48.109375 C 36.0625 -47.421875 36.40625 -47.078125 37.09375 -47.078125 L 38.21875 -47.078125 C 38.894531 -47.078125 39.234375 -46.738281 39.234375 -46.0625 L 39.234375 -35.953125 C 39.234375 -35.273438 38.894531 -34.9375 38.21875 -34.9375 L 37.03125 -34.9375 C 36.351562 -34.9375 36.015625 -34.597656 36.015625 -33.921875 L 36.015625 -32.734375 C 36.015625 -32.054688 35.671875 -31.71875 34.984375 -31.71875 L 32.296875 -31.71875 C 31.617188 -31.71875 31.28125 -31.375 31.28125 -30.6875 L 31.28125 -29.515625 C 31.28125 -28.828125 31.617188 -28.484375 32.296875 -28.484375 L 36.609375 -28.484375 C 37.285156 -28.484375 37.625 -28.144531 37.625 -27.46875 L 37.625 -26.28125 C 37.625 -25.601562 37.960938 -25.265625 38.640625 -25.265625 L 39.828125 -25.265625 C 40.503906 -25.265625 40.84375 -24.921875 40.84375 -24.234375 L 40.84375 -7.46875 C 40.84375 -6.789062 40.503906 -6.453125 39.828125 -6.453125 L 38.640625 -6.453125 C 37.960938 -6.453125 37.625 -6.109375 37.625 -5.421875 L 37.625 -4.25 C 37.625 -3.5625 37.285156 -3.21875 36.609375 -3.21875 L 35.421875 -3.21875 C 34.742188 -3.21875 34.40625 -2.878906 34.40625 -2.203125 L 34.40625 -1.015625 C 34.40625 -0.335938 34.0625 0 33.375 0 L 4.78125 0 C 4.101562 0 3.765625 -0.335938 3.765625 -1.015625 Z M 18.28125 -46.0625 L 18.28125 -32.953125 C 18.28125 -32.265625 18.617188 -31.921875 19.296875 -31.921875 L 20.484375 -31.921875 C 21.160156 -31.921875 21.5 -32.265625 21.5 -32.953125 L 21.5 -34.125 C 21.5 -34.8125 21.835938 -35.15625 22.515625 -35.15625 L 23.703125 -35.15625 C 24.378906 -35.15625 24.71875 -35.492188 24.71875 -36.171875 L 24.71875 -42.84375 C 24.71875 -43.519531 24.378906 -43.859375 23.703125 -43.859375 L 22.515625 -43.859375 C 21.835938 -43.859375 21.5 -44.195312 21.5 -44.875 L 21.5 -46.0625 C 21.5 -46.738281 21.160156 -47.078125 20.484375 -47.078125 L 19.296875 -47.078125 C 18.617188 -47.078125 18.28125 -46.738281 18.28125 -46.0625 Z M 18.28125 -27.3125 L 18.28125 -4.296875 C 18.28125 -3.617188 18.617188 -3.28125 19.296875 -3.28125 L 20.484375 -3.28125 C 21.160156 -3.28125 21.5 -3.617188 21.5 -4.296875 L 21.5 -5.484375 C 21.5 -6.160156 21.835938 -6.5 22.515625 -6.5 L 23.703125 -6.5 C 24.378906 -6.5 24.71875 -6.84375 24.71875 -7.53125 L 24.71875 -24.078125 C 24.71875 -24.753906 24.378906 -25.09375 23.703125 -25.09375 L 22.515625 -25.09375 C 21.835938 -25.09375 21.5 -25.4375 21.5 -26.125 L 21.5 -27.3125 C 21.5 -27.988281 21.160156 -28.328125 20.484375 -28.328125 L 19.296875 -28.328125 C 18.617188 -28.328125 18.28125 -27.988281 18.28125 -27.3125 Z M 18.28125 -27.3125 "/></g></g></g><g fill="#ff000a" fill-opacity="1"><g transform="translate(276.822168, 64.872426)"><g><path d="M 5.640625 -1.015625 L 5.640625 -2.203125 C 5.640625 -2.878906 5.300781 -3.21875 4.625 -3.21875 L 3.4375 -3.21875 C 2.757812 -3.21875 2.421875 -3.5625 2.421875 -4.25 L 2.421875 -13.484375 C 2.421875 -14.171875 2.757812 -14.515625 3.4375 -14.515625 L 15.90625 -14.515625 C 16.59375 -14.515625 16.9375 -14.171875 16.9375 -13.484375 L 16.9375 -4.25 C 16.9375 -3.5625 17.273438 -3.21875 17.953125 -3.21875 L 19.140625 -3.21875 C 19.816406 -3.21875 20.15625 -3.5625 20.15625 -4.25 L 20.15625 -5.421875 C 20.15625 -6.109375 20.492188 -6.453125 21.171875 -6.453125 L 22.953125 -6.453125 C 23.628906 -6.453125 23.96875 -6.789062 23.96875 -7.46875 L 23.96875 -20.265625 C 23.96875 -20.941406 23.628906 -21.28125 22.953125 -21.28125 L 21.765625 -21.28125 C 21.085938 -21.28125 20.75 -21.625 20.75 -22.3125 L 20.75 -23.484375 C 20.75 -24.171875 20.40625 -24.515625 19.71875 -24.515625 L 10.484375 -24.515625 C 9.796875 -24.515625 9.453125 -24.851562 9.453125 -25.53125 L 9.453125 -26.71875 C 9.453125 -27.394531 9.113281 -27.734375 8.4375 -27.734375 L 7.25 -27.734375 C 6.570312 -27.734375 6.234375 -28.070312 6.234375 -28.75 L 6.234375 -29.890625 C 6.234375 -30.597656 5.875 -30.953125 5.15625 -30.953125 L 4.078125 -30.953125 C 3.367188 -30.953125 3.015625 -31.3125 3.015625 -32.03125 L 3.015625 -42.78125 C 3.015625 -43.5 3.367188 -43.859375 4.078125 -43.859375 L 5.15625 -43.859375 C 5.875 -43.859375 6.234375 -44.21875 6.234375 -44.9375 L 6.234375 -46.0625 C 6.234375 -46.738281 6.570312 -47.078125 7.25 -47.078125 L 8.4375 -47.078125 C 9.113281 -47.078125 9.453125 -47.421875 9.453125 -48.109375 L 9.453125 -49.28125 C 9.453125 -49.96875 9.796875 -50.3125 10.484375 -50.3125 L 30.46875 -50.3125 C 31.15625 -50.3125 31.5 -49.96875 31.5 -49.28125 L 31.5 -48.109375 C 31.5 -47.421875 31.835938 -47.078125 32.515625 -47.078125 L 36.390625 -47.078125 C 37.066406 -47.078125 37.40625 -46.738281 37.40625 -46.0625 L 37.40625 -36.8125 C 37.40625 -36.132812 37.066406 -35.796875 36.390625 -35.796875 L 28.21875 -35.796875 C 27.539062 -35.796875 27.203125 -36.132812 27.203125 -36.8125 L 27.203125 -38 C 27.203125 -38.675781 26.859375 -39.015625 26.171875 -39.015625 L 25 -39.015625 C 24.3125 -39.015625 23.96875 -39.359375 23.96875 -40.046875 L 23.96875 -46.0625 C 23.96875 -46.738281 23.628906 -47.078125 22.953125 -47.078125 L 21.765625 -47.078125 C 21.085938 -47.078125 20.75 -46.738281 20.75 -46.0625 L 20.75 -44.875 C 20.75 -44.195312 20.40625 -43.859375 19.71875 -43.859375 L 18.546875 -43.859375 C 17.859375 -43.859375 17.515625 -43.519531 17.515625 -42.84375 L 17.515625 -31.984375 C 17.515625 -31.296875 17.859375 -30.953125 18.546875 -30.953125 L 20.265625 -30.953125 C 20.941406 -30.953125 21.28125 -30.613281 21.28125 -29.9375 L 21.28125 -28.75 C 21.28125 -28.070312 21.625 -27.734375 22.3125 -27.734375 L 31.015625 -27.734375 C 31.691406 -27.734375 32.03125 -27.394531 32.03125 -26.71875 L 32.03125 -25.53125 C 32.03125 -24.851562 32.375 -24.515625 33.0625 -24.515625 L 34.234375 -24.515625 C 34.921875 -24.515625 35.265625 -24.171875 35.265625 -23.484375 L 35.265625 -22.359375 C 35.265625 -21.640625 35.617188 -21.28125 36.328125 -21.28125 L 37.40625 -21.28125 C 38.125 -21.28125 38.484375 -20.921875 38.484375 -20.203125 L 38.484375 -7.53125 C 38.484375 -6.8125 38.125 -6.453125 37.40625 -6.453125 L 36.328125 -6.453125 C 35.617188 -6.453125 35.265625 -6.09375 35.265625 -5.375 L 35.265625 -4.25 C 35.265625 -3.5625 34.921875 -3.21875 34.234375 -3.21875 L 33.0625 -3.21875 C 32.375 -3.21875 32.03125 -2.878906 32.03125 -2.203125 L 32.03125 -1.015625 C 32.03125 -0.335938 31.707031 0 31.0625 0 L 6.609375 0 C 5.960938 0 5.640625 -0.335938 5.640625 -1.015625 Z M 5.640625 -1.015625 "/></g></g></g><g fill="#ff000a" fill-opacity="1"><g transform="translate(361.247813, 64.872426)"><g><path d="M 3.765625 -1.015625 L 3.765625 -49.28125 C 3.765625 -49.96875 4.101562 -50.3125 4.78125 -50.3125 L 17.25 -50.3125 C 17.9375 -50.3125 18.28125 -49.96875 18.28125 -49.28125 L 18.28125 -1.015625 C 18.28125 -0.335938 17.9375 0 17.25 0 L 4.78125 0 C 4.101562 0 3.765625 -0.335938 3.765625 -1.015625 Z M 3.765625 -1.015625 "/></g></g></g><g fill="#ff000a" fill-opacity="1"><g transform="translate(426.274698, 64.872426)"><g><path d="M 14.5625 -1.015625 L 14.5625 -46.125 C 14.5625 -46.800781 14.222656 -47.140625 13.546875 -47.140625 L 12.3125 -47.140625 C 11.625 -47.140625 11.28125 -46.800781 11.28125 -46.125 L 11.28125 -40.046875 C 11.28125 -39.359375 10.941406 -39.015625 10.265625 -39.015625 L 9.078125 -39.015625 C 8.398438 -39.015625 8.0625 -38.675781 8.0625 -38 L 8.0625 -36.8125 C 8.0625 -36.132812 7.722656 -35.796875 7.046875 -35.796875 L 2.640625 -35.796875 C 1.953125 -35.796875 1.609375 -36.132812 1.609375 -36.8125 L 1.609375 -49.28125 C 1.609375 -49.96875 1.953125 -50.3125 2.640625 -50.3125 L 41.015625 -50.3125 C 41.691406 -50.3125 42.03125 -49.96875 42.03125 -49.28125 L 42.03125 -36.8125 C 42.03125 -36.132812 41.691406 -35.796875 41.015625 -35.796875 L 36.609375 -35.796875 C 35.921875 -35.796875 35.578125 -36.132812 35.578125 -36.8125 L 35.578125 -38 C 35.578125 -38.675781 35.238281 -39.015625 34.5625 -39.015625 L 33.375 -39.015625 C 32.695312 -39.015625 32.359375 -39.359375 32.359375 -40.046875 L 32.359375 -46.125 C 32.359375 -46.800781 32.019531 -47.140625 31.34375 -47.140625 L 30.09375 -47.140625 C 29.414062 -47.140625 29.078125 -46.800781 29.078125 -46.125 L 29.078125 -1.015625 C 29.078125 -0.335938 28.738281 0 28.0625 0 L 15.59375 0 C 14.90625 0 14.5625 -0.335938 14.5625 -1.015625 Z M 14.5625 -1.015625 "/></g></g></g><g fill="#ff000a" fill-opacity="1"><g transform="translate(512.903562, 64.872426)"><g><path d="M 3.765625 -1.015625 L 3.765625 -49.28125 C 3.765625 -49.96875 4.101562 -50.3125 4.78125 -50.3125 L 34.984375 -50.3125 C 35.671875 -50.3125 36.015625 -49.96875 36.015625 -49.28125 L 36.015625 -36.8125 C 36.015625 -36.132812 35.671875 -35.796875 34.984375 -35.796875 L 25.75 -35.796875 C 25.0625 -35.796875 24.71875 -36.132812 24.71875 -36.8125 L 24.71875 -38 C 24.71875 -38.675781 24.378906 -39.015625 23.703125 -39.015625 L 22.515625 -39.015625 C 21.835938 -39.015625 21.5 -39.359375 21.5 -40.046875 L 21.5 -46.0625 C 21.5 -46.738281 21.160156 -47.078125 20.484375 -47.078125 L 19.296875 -47.078125 C 18.617188 -47.078125 18.28125 -46.738281 18.28125 -46.0625 L 18.28125 -29.40625 C 18.28125 -28.71875 18.617188 -28.375 19.296875 -28.375 L 29.71875 -28.375 C 30.40625 -28.375 30.75 -28.035156 30.75 -27.359375 L 30.75 -22.953125 C 30.75 -22.273438 30.40625 -21.9375 29.71875 -21.9375 L 19.296875 -21.9375 C 18.617188 -21.9375 18.28125 -21.59375 18.28125 -20.90625 L 18.28125 -4.25 C 18.28125 -3.5625 18.617188 -3.21875 19.296875 -3.21875 L 20.484375 -3.21875 C 21.160156 -3.21875 21.5 -3.5625 21.5 -4.25 L 21.5 -10.265625 C 21.5 -10.941406 21.835938 -11.28125 22.515625 -11.28125 L 23.703125 -11.28125 C 24.378906 -11.28125 24.71875 -11.625 24.71875 -12.3125 L 24.71875 -13.484375 C 24.71875 -14.171875 25.0625 -14.515625 25.75 -14.515625 L 34.984375 -14.515625 C 35.671875 -14.515625 36.015625 -14.171875 36.015625 -13.484375 L 36.015625 -1.015625 C 36.015625 -0.335938 35.671875 0 34.984375 0 L 4.78125 0 C 4.101562 0 3.765625 -0.335938 3.765625 -1.015625 Z M 3.765625 -1.015625 "/></g></g></g><g fill="#000000" fill-opacity="1"><g transform="translate(64.144591, 129.022048)"><g><path d="M 3 -0.8125 L 3 -39.21875 C 3 -39.757812 3.269531 -40.03125 3.8125 -40.03125 L 27.84375 -40.03125 C 28.382812 -40.03125 28.65625 -39.757812 28.65625 -39.21875 L 28.65625 -29.296875 C 28.65625 -28.753906 28.382812 -28.484375 27.84375 -28.484375 L 20.484375 -28.484375 C 19.941406 -28.484375 19.671875 -28.753906 19.671875 -29.296875 L 19.671875 -30.234375 C 19.671875 -30.773438 19.398438 -31.046875 18.859375 -31.046875 L 17.921875 -31.046875 C 17.378906 -31.046875 17.109375 -31.316406 17.109375 -31.859375 L 17.109375 -36.65625 C 17.109375 -37.195312 16.835938 -37.46875 16.296875 -37.46875 L 15.359375 -37.46875 C 14.816406 -37.46875 14.546875 -37.195312 14.546875 -36.65625 L 14.546875 -23.390625 C 14.546875 -22.847656 14.816406 -22.578125 15.359375 -22.578125 L 23.65625 -22.578125 C 24.195312 -22.578125 24.46875 -22.304688 24.46875 -21.765625 L 24.46875 -18.265625 C 24.46875 -17.722656 24.195312 -17.453125 23.65625 -17.453125 L 15.359375 -17.453125 C 14.816406 -17.453125 14.546875 -17.179688 14.546875 -16.640625 L 14.546875 -3.375 C 14.546875 -2.832031 14.816406 -2.5625 15.359375 -2.5625 L 16.296875 -2.5625 C 16.835938 -2.5625 17.109375 -2.832031 17.109375 -3.375 L 17.109375 -8.171875 C 17.109375 -8.710938 17.378906 -8.984375 17.921875 -8.984375 L 18.859375 -8.984375 C 19.398438 -8.984375 19.671875 -9.253906 19.671875 -9.796875 L 19.671875 -10.734375 C 19.671875 -11.273438 19.941406 -11.546875 20.484375 -11.546875 L 27.84375 -11.546875 C 28.382812 -11.546875 28.65625 -11.273438 28.65625 -10.734375 L 28.65625 -0.8125 C 28.65625 -0.269531 28.382812 0 27.84375 0 L 3.8125 0 C 3.269531 0 3 -0.269531 3 -0.8125 Z M 3 -0.8125 "/></g></g></g><g fill="#000000" fill-opacity="1"><g transform="translate(129.149722, 129.022048)"><g><path d="M 1.28125 -0.8125 L 1.28125 -12.78125 C 1.28125 -13.320312 1.550781 -13.59375 2.09375 -13.59375 L 3.03125 -13.59375 C 3.570312 -13.59375 3.84375 -13.863281 3.84375 -14.40625 L 3.84375 -15.359375 C 3.84375 -15.898438 4.113281 -16.171875 4.65625 -16.171875 L 5.609375 -16.171875 C 6.148438 -16.171875 6.421875 -16.441406 6.421875 -16.984375 L 6.421875 -17.921875 C 6.421875 -18.460938 6.691406 -18.734375 7.234375 -18.734375 L 10.734375 -18.734375 C 11.273438 -18.734375 11.546875 -19.003906 11.546875 -19.546875 L 11.546875 -20.484375 C 11.546875 -21.023438 11.273438 -21.296875 10.734375 -21.296875 L 7.234375 -21.296875 C 6.691406 -21.296875 6.421875 -21.566406 6.421875 -22.109375 L 6.421875 -23.046875 C 6.421875 -23.585938 6.148438 -23.859375 5.609375 -23.859375 L 4.65625 -23.859375 C 4.113281 -23.859375 3.84375 -24.128906 3.84375 -24.671875 L 3.84375 -25.609375 C 3.84375 -26.148438 3.570312 -26.421875 3.03125 -26.421875 L 2.09375 -26.421875 C 1.550781 -26.421875 1.28125 -26.691406 1.28125 -27.234375 L 1.28125 -39.21875 C 1.28125 -39.757812 1.550781 -40.03125 2.09375 -40.03125 L 12.015625 -40.03125 C 12.554688 -40.03125 12.828125 -39.757812 12.828125 -39.21875 L 12.828125 -24.671875 C 12.828125 -24.128906 13.097656 -23.859375 13.640625 -23.859375 L 14.578125 -23.859375 C 15.117188 -23.859375 15.390625 -23.585938 15.390625 -23.046875 L 15.390625 -22.109375 C 15.390625 -21.566406 15.660156 -21.296875 16.203125 -21.296875 L 17.15625 -21.296875 C 17.695312 -21.296875 17.96875 -21.566406 17.96875 -22.109375 L 17.96875 -23.046875 C 17.96875 -23.585938 18.238281 -23.859375 18.78125 -23.859375 L 19.71875 -23.859375 C 20.257812 -23.859375 20.53125 -24.128906 20.53125 -24.671875 L 20.53125 -39.21875 C 20.53125 -39.757812 20.800781 -40.03125 21.34375 -40.03125 L 31.265625 -40.03125 C 31.804688 -40.03125 32.078125 -39.757812 32.078125 -39.21875 L 32.078125 -27.234375 C 32.078125 -26.691406 31.804688 -26.421875 31.265625 -26.421875 L 30.328125 -26.421875 C 29.785156 -26.421875 29.515625 -26.148438 29.515625 -25.609375 L 29.515625 -24.671875 C 29.515625 -24.128906 29.242188 -23.859375 28.703125 -23.859375 L 27.75 -23.859375 C 27.207031 -23.859375 26.9375 -23.585938 26.9375 -23.046875 L 26.9375 -22.109375 C 26.9375 -21.566406 26.664062 -21.296875 26.125 -21.296875 L 22.625 -21.296875 C 22.082031 -21.296875 21.8125 -21.023438 21.8125 -20.484375 L 21.8125 -19.546875 C 21.8125 -19.003906 22.082031 -18.734375 22.625 -18.734375 L 26.125 -18.734375 C 26.664062 -18.734375 26.9375 -18.460938 26.9375 -17.921875 L 26.9375 -16.984375 C 26.9375 -16.441406 27.207031 -16.171875 27.75 -16.171875 L 28.703125 -16.171875 C 29.242188 -16.171875 29.515625 -15.898438 29.515625 -15.359375 L 29.515625 -14.40625 C 29.515625 -13.863281 29.785156 -13.59375 30.328125 -13.59375 L 31.265625 -13.59375 C 31.804688 -13.59375 32.078125 -13.320312 32.078125 -12.78125 L 32.078125 -0.8125 C 32.078125 -0.269531 31.804688 0 31.265625 0 L 21.34375 0 C 20.800781 0 20.53125 -0.269531 20.53125 -0.8125 L 20.53125 -15.359375 C 20.53125 -15.898438 20.257812 -16.171875 19.71875 -16.171875 L 18.78125 -16.171875 C 18.238281 -16.171875 17.96875 -16.441406 17.96875 -16.984375 L 17.96875 -17.921875 C 17.96875 -18.460938 17.695312 -18.734375 17.15625 -18.734375 L 16.203125 -18.734375 C 15.660156 -18.734375 15.390625 -18.460938 15.390625 -17.921875 L 15.390625 -16.984375 C 15.390625 -16.441406 15.117188 -16.171875 14.578125 -16.171875 L 13.640625 -16.171875 C 13.097656 -16.171875 12.828125 -15.898438 12.828125 -15.359375 L 12.828125 -0.8125 C 12.828125 -0.269531 12.554688 0 12.015625 0 L 2.09375 0 C 1.550781 0 1.28125 -0.269531 1.28125 -0.8125 Z M 1.28125 -0.8125 "/></g></g></g><g fill="#000000" fill-opacity="1"><g transform="translate(196.720842, 129.022048)"><g><path d="M 3 -0.8125 L 3 -39.21875 C 3 -39.757812 3.269531 -40.03125 3.8125 -40.03125 L 25.28125 -40.03125 C 25.820312 -40.03125 26.09375 -39.757812 26.09375 -39.21875 L 26.09375 -38.28125 C 26.09375 -37.738281 26.363281 -37.46875 26.90625 -37.46875 L 27.84375 -37.46875 C 28.382812 -37.46875 28.65625 -37.195312 28.65625 -36.65625 L 28.65625 -35.703125 C 28.65625 -35.160156 28.925781 -34.890625 29.46875 -34.890625 L 30.40625 -34.890625 C 30.945312 -34.890625 31.21875 -34.617188 31.21875 -34.078125 L 31.21875 -21.9375 C 31.21875 -21.394531 30.945312 -21.125 30.40625 -21.125 L 29.46875 -21.125 C 28.925781 -21.125 28.65625 -20.851562 28.65625 -20.3125 L 28.65625 -19.375 C 28.65625 -18.832031 28.382812 -18.5625 27.84375 -18.5625 L 20.484375 -18.5625 C 19.941406 -18.5625 19.671875 -18.289062 19.671875 -17.75 L 19.671875 -16.8125 C 19.671875 -16.269531 19.398438 -16 18.859375 -16 L 15.359375 -16 C 14.816406 -16 14.546875 -15.726562 14.546875 -15.1875 L 14.546875 -0.8125 C 14.546875 -0.269531 14.273438 0 13.734375 0 L 3.8125 0 C 3.269531 0 3 -0.269531 3 -0.8125 Z M 14.546875 -36.65625 L 14.546875 -19.375 C 14.546875 -18.832031 14.816406 -18.5625 15.359375 -18.5625 L 16.296875 -18.5625 C 16.835938 -18.5625 17.109375 -18.832031 17.109375 -19.375 L 17.109375 -20.3125 C 17.109375 -20.851562 17.378906 -21.125 17.921875 -21.125 L 18.859375 -21.125 C 19.398438 -21.125 19.671875 -21.394531 19.671875 -21.9375 L 19.671875 -34.078125 C 19.671875 -34.617188 19.398438 -34.890625 18.859375 -34.890625 L 17.921875 -34.890625 C 17.378906 -34.890625 17.109375 -35.160156 17.109375 -35.703125 L 17.109375 -36.65625 C 17.109375 -37.195312 16.835938 -37.46875 16.296875 -37.46875 L 15.359375 -37.46875 C 14.816406 -37.46875 14.546875 -37.195312 14.546875 -36.65625 Z M 14.546875 -36.65625 "/></g></g></g><g fill="#000000" fill-opacity="1"><g transform="translate(263.008969, 129.022048)"><g><path d="M 3 -0.8125 L 3 -39.21875 C 3 -39.757812 3.269531 -40.03125 3.8125 -40.03125 L 27.84375 -40.03125 C 28.382812 -40.03125 28.65625 -39.757812 28.65625 -39.21875 L 28.65625 -29.296875 C 28.65625 -28.753906 28.382812 -28.484375 27.84375 -28.484375 L 20.484375 -28.484375 C 19.941406 -28.484375 19.671875 -28.753906 19.671875 -29.296875 L 19.671875 -30.234375 C 19.671875 -30.773438 19.398438 -31.046875 18.859375 -31.046875 L 17.921875 -31.046875 C 17.378906 -31.046875 17.109375 -31.316406 17.109375 -31.859375 L 17.109375 -36.65625 C 17.109375 -37.195312 16.835938 -37.46875 16.296875 -37.46875 L 15.359375 -37.46875 C 14.816406 -37.46875 14.546875 -37.195312 14.546875 -36.65625 L 14.546875 -23.390625 C 14.546875 -22.847656 14.816406 -22.578125 15.359375 -22.578125 L 23.65625 -22.578125 C 24.195312 -22.578125 24.46875 -22.304688 24.46875 -21.765625 L 24.46875 -18.265625 C 24.46875 -17.722656 24.195312 -17.453125 23.65625 -17.453125 L 15.359375 -17.453125 C 14.816406 -17.453125 14.546875 -17.179688 14.546875 -16.640625 L 14.546875 -3.375 C 14.546875 -2.832031 14.816406 -2.5625 15.359375 -2.5625 L 16.296875 -2.5625 C 16.835938 -2.5625 17.109375 -2.832031 17.109375 -3.375 L 17.109375 -8.171875 C 17.109375 -8.710938 17.378906 -8.984375 17.921875 -8.984375 L 18.859375 -8.984375 C 19.398438 -8.984375 19.671875 -9.253906 19.671875 -9.796875 L 19.671875 -10.734375 C 19.671875 -11.273438 19.941406 -11.546875 20.484375 -11.546875 L 27.84375 -11.546875 C 28.382812 -11.546875 28.65625 -11.273438 28.65625 -10.734375 L 28.65625 -0.8125 C 28.65625 -0.269531 28.382812 0 27.84375 0 L 3.8125 0 C 3.269531 0 3 -0.269531 3 -0.8125 Z M 3 -0.8125 "/></g></g></g><g fill="#000000" fill-opacity="1"><g transform="translate(328.0141, 129.022048)"><g><path d="M 14.546875 -36.65625 L 14.546875 -20.65625 C 14.546875 -20.113281 14.816406 -19.84375 15.359375 -19.84375 L 16.296875 -19.84375 C 16.835938 -19.84375 17.109375 -20.113281 17.109375 -20.65625 L 17.109375 -21.59375 C 17.109375 -22.132812 17.378906 -22.40625 17.921875 -22.40625 L 18.859375 -22.40625 C 19.398438 -22.40625 19.671875 -22.675781 19.671875 -23.21875 L 19.671875 -34.078125 C 19.671875 -34.617188 19.398438 -34.890625 18.859375 -34.890625 L 17.921875 -34.890625 C 17.378906 -34.890625 17.109375 -35.160156 17.109375 -35.703125 L 17.109375 -36.65625 C 17.109375 -37.195312 16.835938 -37.46875 16.296875 -37.46875 L 15.359375 -37.46875 C 14.816406 -37.46875 14.546875 -37.195312 14.546875 -36.65625 Z M 3 -0.8125 L 3 -39.21875 C 3 -39.757812 3.269531 -40.03125 3.8125 -40.03125 L 25.28125 -40.03125 C 25.820312 -40.03125 26.09375 -39.757812 26.09375 -39.21875 L 26.09375 -38.28125 C 26.09375 -37.738281 26.363281 -37.46875 26.90625 -37.46875 L 27.84375 -37.46875 C 28.382812 -37.46875 28.65625 -37.195312 28.65625 -36.65625 L 28.65625 -35.703125 C 28.65625 -35.160156 28.925781 -34.890625 29.46875 -34.890625 L 30.40625 -34.890625 C 30.945312 -34.890625 31.21875 -34.617188 31.21875 -34.078125 L 31.21875 -23.21875 C 31.21875 -22.675781 30.945312 -22.40625 30.40625 -22.40625 L 29.46875 -22.40625 C 28.925781 -22.40625 28.65625 -22.132812 28.65625 -21.59375 L 28.65625 -20.65625 C 28.65625 -20.113281 28.382812 -19.84375 27.84375 -19.84375 L 23.046875 -19.84375 C 22.503906 -19.84375 22.234375 -19.570312 22.234375 -19.03125 L 22.234375 -18.09375 C 22.234375 -17.550781 22.503906 -17.28125 23.046875 -17.28125 L 27.84375 -17.28125 C 28.382812 -17.28125 28.65625 -17.007812 28.65625 -16.46875 L 28.65625 -15.53125 C 28.65625 -14.988281 28.925781 -14.71875 29.46875 -14.71875 L 30.40625 -14.71875 C 30.945312 -14.71875 31.21875 -14.445312 31.21875 -13.90625 L 31.21875 -0.8125 C 31.21875 -0.269531 30.945312 0 30.40625 0 L 20.484375 0 C 19.941406 0 19.671875 -0.269531 19.671875 -0.8125 L 19.671875 -13.90625 C 19.671875 -14.445312 19.398438 -14.71875 18.859375 -14.71875 L 17.921875 -14.71875 C 17.378906 -14.71875 17.109375 -14.988281 17.109375 -15.53125 L 17.109375 -16.46875 C 17.109375 -17.007812 16.835938 -17.28125 16.296875 -17.28125 L 15.359375 -17.28125 C 14.816406 -17.28125 14.546875 -17.007812 14.546875 -16.46875 L 14.546875 -0.8125 C 14.546875 -0.269531 14.273438 0 13.734375 0 L 3.8125 0 C 3.269531 0 3 -0.269531 3 -0.8125 Z M 3 -0.8125 "/></g></g></g><g fill="#000000" fill-opacity="1"><g transform="translate(396.440569, 129.022048)"><g><path d="M 11.59375 -0.8125 L 11.59375 -36.6875 C 11.59375 -37.226562 11.320312 -37.5 10.78125 -37.5 L 9.796875 -37.5 C 9.253906 -37.5 8.984375 -37.226562 8.984375 -36.6875 L 8.984375 -31.859375 C 8.984375 -31.316406 8.710938 -31.046875 8.171875 -31.046875 L 7.234375 -31.046875 C 6.691406 -31.046875 6.421875 -30.773438 6.421875 -30.234375 L 6.421875 -29.296875 C 6.421875 -28.753906 6.148438 -28.484375 5.609375 -28.484375 L 2.09375 -28.484375 C 1.550781 -28.484375 1.28125 -28.753906 1.28125 -29.296875 L 1.28125 -39.21875 C 1.28125 -39.757812 1.550781 -40.03125 2.09375 -40.03125 L 32.625 -40.03125 C 33.164062 -40.03125 33.4375 -39.757812 33.4375 -39.21875 L 33.4375 -29.296875 C 33.4375 -28.753906 33.164062 -28.484375 32.625 -28.484375 L 29.125 -28.484375 C 28.582031 -28.484375 28.3125 -28.753906 28.3125 -29.296875 L 28.3125 -30.234375 C 28.3125 -30.773438 28.039062 -31.046875 27.5 -31.046875 L 26.5625 -31.046875 C 26.019531 -31.046875 25.75 -31.316406 25.75 -31.859375 L 25.75 -36.6875 C 25.75 -37.226562 25.476562 -37.5 24.9375 -37.5 L 23.953125 -37.5 C 23.410156 -37.5 23.140625 -37.226562 23.140625 -36.6875 L 23.140625 -0.8125 C 23.140625 -0.269531 22.867188 0 22.328125 0 L 12.40625 0 C 11.863281 0 11.59375 -0.269531 11.59375 -0.8125 Z M 11.59375 -0.8125 "/></g></g></g><g fill="#000000" fill-opacity="1"><g transform="translate(465.380225, 129.022048)"><g><path d="M 2.140625 -0.8125 L 2.140625 -18.4375 C 2.140625 -18.976562 2.410156 -19.25 2.953125 -19.25 L 3.890625 -19.25 C 4.429688 -19.25 4.703125 -19.519531 4.703125 -20.0625 L 4.703125 -21 C 4.703125 -21.539062 4.972656 -21.8125 5.515625 -21.8125 L 14.15625 -21.8125 C 14.695312 -21.8125 14.96875 -22.082031 14.96875 -22.625 L 14.96875 -23.5625 C 14.96875 -24.101562 15.238281 -24.375 15.78125 -24.375 L 18 -24.375 C 18.539062 -24.375 18.8125 -24.644531 18.8125 -25.1875 L 18.8125 -34.078125 C 18.8125 -34.617188 18.539062 -34.890625 18 -34.890625 L 17.0625 -34.890625 C 16.519531 -34.890625 16.25 -35.160156 16.25 -35.703125 L 16.25 -36.65625 C 16.25 -37.195312 15.976562 -37.46875 15.4375 -37.46875 L 14.5 -37.46875 C 13.957031 -37.46875 13.6875 -37.195312 13.6875 -36.65625 L 13.6875 -31.859375 C 13.6875 -31.316406 13.414062 -31.046875 12.875 -31.046875 L 11.9375 -31.046875 C 11.394531 -31.046875 11.125 -30.773438 11.125 -30.234375 L 11.125 -29.296875 C 11.125 -28.753906 10.851562 -28.484375 10.3125 -28.484375 L 2.953125 -28.484375 C 2.410156 -28.484375 2.140625 -28.753906 2.140625 -29.296875 L 2.140625 -39.21875 C 2.140625 -39.757812 2.410156 -40.03125 2.953125 -40.03125 L 28.265625 -40.03125 C 28.804688 -40.03125 29.078125 -39.757812 29.078125 -39.21875 L 29.078125 -25.1875 C 29.078125 -24.644531 28.804688 -24.375 28.265625 -24.375 L 27.328125 -24.375 C 26.785156 -24.375 26.515625 -24.101562 26.515625 -23.5625 L 26.515625 -22.625 C 26.515625 -22.082031 26.242188 -21.8125 25.703125 -21.8125 L 24.765625 -21.8125 C 24.222656 -21.8125 23.953125 -21.539062 23.953125 -21 L 23.953125 -20.0625 C 23.953125 -19.519531 23.679688 -19.25 23.140625 -19.25 L 13.25 -19.25 C 12.707031 -19.25 12.4375 -18.976562 12.4375 -18.4375 L 12.4375 -5.9375 C 12.4375 -5.394531 12.707031 -5.125 13.25 -5.125 L 14.15625 -5.125 C 14.695312 -5.125 14.96875 -4.851562 14.96875 -4.3125 L 14.96875 -3.375 C 14.96875 -2.832031 15.238281 -2.5625 15.78125 -2.5625 L 16.71875 -2.5625 C 17.257812 -2.5625 17.53125 -2.832031 17.53125 -3.375 L 17.53125 -10.734375 C 17.53125 -11.273438 17.800781 -11.546875 18.34375 -11.546875 L 28.265625 -11.546875 C 28.804688 -11.546875 29.078125 -11.273438 29.078125 -10.734375 L 29.078125 -0.8125 C 29.078125 -0.269531 28.804688 0 28.265625 0 L 2.953125 0 C 2.410156 0 2.140625 -0.269531 2.140625 -0.8125 Z M 2.140625 -0.8125 "/></g></g></g></g></g></g></g></g></svg>